<svg width="165" height="63" viewBox="0 0 165 63" fill="none" xmlns="http://www.w3.org/2000/svg">
<path d="M9.64 48.3916V30.1996H21.64V31.3276H11.968V38.3356H20.248V39.4636H11.968V47.2636H21.64V48.3916H9.64ZM31.3358 48.3916H26.2478V30.1996H31.2398C32.8238 30.1996 34.2718 30.3756 35.5838 30.7276C36.9118 31.0796 38.0878 31.6076 39.1118 32.3116C40.1518 33.0156 40.9598 33.9516 41.5358 35.1196C42.1278 36.2876 42.4238 37.6396 42.4238 39.1756C42.4238 40.7116 42.1278 42.0796 41.5358 43.2796C40.9598 44.4796 40.1598 45.4476 39.1358 46.1836C38.1118 46.9036 36.9358 47.4556 35.6078 47.8396C34.2958 48.2076 32.8718 48.3916 31.3358 48.3916ZM28.5758 47.3356H31.2398C33.8798 47.3356 35.9598 46.6956 37.4798 45.4156C39.0158 44.1196 39.7838 42.0716 39.7838 39.2716C39.7838 36.4716 39.0158 34.4396 37.4798 33.1756C35.9598 31.8956 33.8798 31.2556 31.2398 31.2556H28.5758V47.3356ZM47.0275 48.3916V30.1996H59.0275V31.3276H49.3555V38.3356H57.6355V39.4636H49.3555V47.2636H59.0275V48.3916H47.0275ZM63.6353 48.3916V30.1996H65.9633V47.2636H75.4913V48.3916H63.6353ZM81.2723 48.5356L75.2483 30.1996H77.6963L82.5683 45.2956L87.8243 30.1996H89.0723L94.4243 45.1756L99.3443 30.1996H100.712L94.6883 48.5356H93.2483L87.9203 33.7996L82.7123 48.5356H81.2723ZM104.492 48.3916V30.1996H116.492V31.3276H106.82V38.3356H115.1V39.4636H106.82V47.2636H116.492V48.3916H104.492ZM121.099 48.3916V30.1996H123.427V48.3916H121.099ZM134.261 48.6796C132.133 48.6796 130.373 48.3516 128.981 47.6956L128.501 42.6796H129.221L130.541 46.5676C130.797 47.3036 132.029 47.6716 134.237 47.6716C135.533 47.6716 136.573 47.3756 137.357 46.7836C138.141 46.1756 138.533 45.3436 138.533 44.2876C138.533 43.2316 138.197 42.4156 137.525 41.8396C136.853 41.2476 135.781 40.7116 134.309 40.2316L133.013 39.7996C129.973 38.7756 128.453 37.0236 128.453 34.5436C128.453 33.1036 129.077 31.9596 130.325 31.1116C131.589 30.2476 133.101 29.8156 134.861 29.8156C136.685 29.8156 138.117 30.0796 139.157 30.6076L139.805 35.2876H139.085L137.717 31.8556C137.445 31.1676 136.445 30.8236 134.717 30.8236C133.565 30.8236 132.597 31.0876 131.813 31.6156C131.045 32.1276 130.661 32.8476 130.661 33.7756C130.661 34.6396 130.901 35.3596 131.381 35.9356C131.861 36.5116 132.629 36.9756 133.685 37.3276L134.981 37.7596C136.885 38.3836 138.325 39.1196 139.301 39.9676C140.293 40.8156 140.789 41.9836 140.789 43.4716C140.789 44.9916 140.157 46.2396 138.893 47.2156C137.629 48.1916 136.085 48.6796 134.261 48.6796ZM150.306 48.6796C148.178 48.6796 146.418 48.3516 145.026 47.6956L144.546 42.6796H145.266L146.586 46.5676C146.842 47.3036 148.074 47.6716 150.282 47.6716C151.578 47.6716 152.618 47.3756 153.402 46.7836C154.186 46.1756 154.578 45.3436 154.578 44.2876C154.578 43.2316 154.242 42.4156 153.57 41.8396C152.898 41.2476 151.826 40.7116 150.354 40.2316L149.058 39.7996C146.018 38.7756 144.498 37.0236 144.498 34.5436C144.498 33.1036 145.122 31.9596 146.37 31.1116C147.634 30.2476 149.146 29.8156 150.906 29.8156C152.73 29.8156 154.162 30.0796 155.202 30.6076L155.85 35.2876H155.13L153.762 31.8556C153.49 31.1676 152.49 30.8236 150.762 30.8236C149.61 30.8236 148.642 31.0876 147.858 31.6156C147.09 32.1276 146.706 32.8476 146.706 33.7756C146.706 34.6396 146.946 35.3596 147.426 35.9356C147.906 36.5116 148.674 36.9756 149.73 37.3276L151.026 37.7596C152.93 38.3836 154.37 39.1196 155.346 39.9676C156.338 40.8156 156.834 41.9836 156.834 43.4716C156.834 44.9916 156.202 46.2396 154.938 47.2156C153.674 48.1916 152.13 48.6796 150.306 48.6796Z" fill="white"/>
<path d="M1.6 60.3916H0.96V55.3516H4.06V55.9316H1.6V60.3916ZM5.5518 59.7016C5.11846 59.1816 4.9018 58.5716 4.9018 57.8716C4.9018 57.1716 5.11846 56.5649 5.5518 56.0516C5.98513 55.5316 6.55513 55.2716 7.2618 55.2716C7.96846 55.2716 8.53846 55.5316 8.9718 56.0516C9.40513 56.5649 9.6218 57.1716 9.6218 57.8716C9.6218 58.5716 9.40513 59.1816 8.9718 59.7016C8.53846 60.2149 7.96846 60.4716 7.2618 60.4716C6.55513 60.4716 5.98513 60.2149 5.5518 59.7016ZM6.0118 56.4616C5.70513 56.8616 5.5518 57.3316 5.5518 57.8716C5.5518 58.4116 5.70513 58.8849 6.0118 59.2916C6.31846 59.6916 6.73513 59.8916 7.2618 59.8916C7.78846 59.8916 8.20513 59.6916 8.5118 59.2916C8.81846 58.8849 8.9718 58.4116 8.9718 57.8716C8.9718 57.3316 8.81846 56.8616 8.5118 56.4616C8.20513 56.0549 7.78846 55.8516 7.2618 55.8516C6.73513 55.8516 6.31846 56.0549 6.0118 56.4616ZM11.5816 59.7116C11.1883 59.1983 10.9916 58.5849 10.9916 57.8716C10.9916 57.1583 11.1883 56.5483 11.5816 56.0416C11.975 55.5283 12.5216 55.2716 13.2216 55.2716C14.2283 55.2716 14.905 55.7349 15.2516 56.6616L14.6916 56.8816C14.4116 56.1949 13.9216 55.8516 13.2216 55.8516C12.7083 55.8516 12.315 56.0449 12.0416 56.4316C11.775 56.8116 11.6416 57.2916 11.6416 57.8716C11.6416 58.4516 11.775 58.9349 12.0416 59.3216C12.315 59.7016 12.7083 59.8916 13.2216 59.8916C13.9216 59.8916 14.4116 59.5483 14.6916 58.8616L15.2516 59.0816C14.905 60.0083 14.2283 60.4716 13.2216 60.4716C12.5216 60.4716 11.975 60.2183 11.5816 59.7116ZM17.756 55.9316H16.336V55.3516H19.796V55.9316H18.376V60.3916H17.756V55.9316ZM21.8583 60.3916H21.1983V55.3516H21.8183V59.4116L24.4783 55.3516H25.1383V60.3916H24.5183V56.3316L21.8583 60.3916ZM27.664 60.3916H27.044V55.3516H27.664V57.4216H30.124V55.3516H30.744V60.3916H30.124V58.0016H27.664V60.3916ZM32.8753 59.7416C32.462 59.2483 32.2553 58.6249 32.2553 57.8716C32.2553 57.1183 32.462 56.4983 32.8753 56.0116C33.2886 55.5183 33.8286 55.2716 34.4953 55.2716C35.1486 55.2716 35.6786 55.4849 36.0853 55.9116C36.4986 56.3383 36.7053 56.8983 36.7053 57.5916V57.8716H32.9053C32.9053 58.4716 33.0453 58.9583 33.3253 59.3316C33.612 59.7049 34.002 59.8916 34.4953 59.8916C34.8753 59.8916 35.182 59.8083 35.4153 59.6416C35.6486 59.4749 35.8586 59.1983 36.0453 58.8116L36.5953 59.0816C36.342 59.5816 36.0486 59.9383 35.7153 60.1516C35.382 60.3649 34.9753 60.4716 34.4953 60.4716C33.8286 60.4716 33.2886 60.2283 32.8753 59.7416ZM32.9453 57.2916H36.0653C36.0053 56.8383 35.842 56.4849 35.5753 56.2316C35.3086 55.9783 34.9486 55.8516 34.4953 55.8516C34.0953 55.8516 33.7553 55.9849 33.4753 56.2516C33.202 56.5183 33.0253 56.8649 32.9453 57.2916ZM38.3629 58.0516V55.3516H38.9829V57.9916C38.9829 58.2983 39.0662 58.5283 39.2329 58.6816C39.3996 58.8349 39.6196 58.9116 39.8929 58.9116C40.4862 58.9116 41.0162 58.5649 41.4829 57.8716V55.3516H42.1029V60.3916H41.4829V58.6616C41.0229 59.2016 40.4562 59.4716 39.7829 59.4716C39.3496 59.4716 39.0029 59.3449 38.7429 59.0916C38.4896 58.8316 38.3629 58.4849 38.3629 58.0516ZM44.7714 60.3916H44.1514V55.3516H44.7714V57.4216H47.2314V55.3516H47.8514V60.3916H47.2314V58.0016H44.7714V60.3916ZM51.453 60.3916H49.753V55.3516H50.373V57.2716H51.453C51.9996 57.2716 52.4163 57.4116 52.703 57.6916C52.9896 57.9649 53.133 58.3449 53.133 58.8316C53.133 59.3183 52.9896 59.7016 52.703 59.9816C52.4163 60.2549 51.9996 60.3916 51.453 60.3916ZM50.373 57.8516V59.8116H51.183C51.623 59.8116 51.943 59.7349 52.143 59.5816C52.343 59.4216 52.443 59.1716 52.443 58.8316C52.443 58.4916 52.343 58.2449 52.143 58.0916C51.943 57.9316 51.623 57.8516 51.183 57.8516H50.373ZM54.783 60.3916H54.163V55.3516H54.783V60.3916ZM57.2645 60.3916H56.6045V55.3516H57.2245V59.4116L59.8845 55.3516H60.5445V60.3916H59.9245V56.3316L57.2645 60.3916ZM57.5245 53.3916H58.0345C58.0345 53.5716 58.0812 53.7149 58.1745 53.8216C58.2679 53.9283 58.4012 53.9816 58.5745 53.9816C58.9345 53.9816 59.1145 53.7849 59.1145 53.3916H59.6245C59.6245 53.7183 59.5312 53.9816 59.3445 54.1816C59.1645 54.3816 58.9079 54.4816 58.5745 54.4816C58.2545 54.4816 57.9979 54.3816 57.8045 54.1816C57.6179 53.9816 57.5245 53.7183 57.5245 53.3916ZM66.1034 60.3916H65.4834V55.3516H66.1034V57.5816L68.2134 55.3516H68.9934L66.8134 57.6616L69.1734 60.3916H68.3834L66.1034 57.7416V60.3916ZM70.8077 59.7016C70.3743 59.1816 70.1577 58.5716 70.1577 57.8716C70.1577 57.1716 70.3743 56.5649 70.8077 56.0516C71.241 55.5316 71.811 55.2716 72.5177 55.2716C73.2243 55.2716 73.7943 55.5316 74.2277 56.0516C74.661 56.5649 74.8777 57.1716 74.8777 57.8716C74.8777 58.5716 74.661 59.1816 74.2277 59.7016C73.7943 60.2149 73.2243 60.4716 72.5177 60.4716C71.811 60.4716 71.241 60.2149 70.8077 59.7016ZM71.2677 56.4616C70.961 56.8616 70.8077 57.3316 70.8077 57.8716C70.8077 58.4116 70.961 58.8849 71.2677 59.2916C71.5743 59.6916 71.991 59.8916 72.5177 59.8916C73.0443 59.8916 73.461 59.6916 73.7677 59.2916C74.0743 58.8849 74.2277 58.4116 74.2277 57.8716C74.2277 57.3316 74.0743 56.8616 73.7677 56.4616C73.461 56.0549 73.0443 55.8516 72.5177 55.8516C71.991 55.8516 71.5743 56.0549 71.2677 56.4616ZM77.0429 60.3916H76.4229V55.3516H77.2629L78.6929 58.9116L80.1229 55.3516H80.9629V60.3916H80.3429V56.3316L78.9129 59.9316H78.4729L77.0429 56.3316V60.3916ZM83.5038 60.3916H82.8838V55.3516H86.5938V60.3916H85.9738V55.9316H83.5038V60.3916ZM87.7803 60.3916V59.8116C88.127 59.8116 88.3703 59.7416 88.5103 59.6016C88.657 59.4549 88.7436 59.2149 88.7703 58.8816L89.1203 55.3516H92.3203V60.3916H91.7003V55.9316H89.7003L89.3803 59.0316C89.327 59.5049 89.177 59.8516 88.9303 60.0716C88.6903 60.2849 88.307 60.3916 87.7803 60.3916ZM94.4827 59.7416C94.0694 59.2483 93.8627 58.6249 93.8627 57.8716C93.8627 57.1183 94.0694 56.4983 94.4827 56.0116C94.8961 55.5183 95.4361 55.2716 96.1027 55.2716C96.7561 55.2716 97.2861 55.4849 97.6927 55.9116C98.1061 56.3383 98.3127 56.8983 98.3127 57.5916V57.8716H94.5127C94.5127 58.4716 94.6527 58.9583 94.9327 59.3316C95.2194 59.7049 95.6094 59.8916 96.1027 59.8916C96.4827 59.8916 96.7894 59.8083 97.0227 59.6416C97.2561 59.4749 97.4661 59.1983 97.6527 58.8116L98.2027 59.0816C97.9494 59.5816 97.6561 59.9383 97.3227 60.1516C96.9894 60.3649 96.5827 60.4716 96.1027 60.4716C95.4361 60.4716 94.8961 60.2283 94.4827 59.7416ZM94.5527 57.2916H97.6727C97.6127 56.8383 97.4494 56.4849 97.1827 56.2316C96.9161 55.9783 96.5561 55.8516 96.1027 55.8516C95.7027 55.8516 95.3627 55.9849 95.0827 56.2516C94.8094 56.5183 94.6327 56.8649 94.5527 57.2916ZM100.426 60.3916H99.8057V55.3516H100.426V57.5816L102.536 55.3516H103.316L101.136 57.6616L103.496 60.3916H102.706L100.426 57.7416V60.3916ZM105.07 59.7116C104.677 59.1983 104.48 58.5849 104.48 57.8716C104.48 57.1583 104.677 56.5483 105.07 56.0416C105.463 55.5283 106.01 55.2716 106.71 55.2716C107.717 55.2716 108.393 55.7349 108.74 56.6616L108.18 56.8816C107.9 56.1949 107.41 55.8516 106.71 55.8516C106.197 55.8516 105.803 56.0449 105.53 56.4316C105.263 56.8116 105.13 57.2916 105.13 57.8716C105.13 58.4516 105.263 58.9349 105.53 59.3216C105.803 59.7016 106.197 59.8916 106.71 59.8916C107.41 59.8916 107.9 59.5483 108.18 58.8616L108.74 59.0816C108.393 60.0083 107.717 60.4716 106.71 60.4716C106.01 60.4716 105.463 60.2183 105.07 59.7116ZM115.053 60.3916H113.183V55.3516H115.073C115.499 55.3516 115.839 55.4616 116.093 55.6816C116.346 55.9016 116.473 56.2083 116.473 56.6016C116.473 57.0549 116.283 57.3983 115.903 57.6316C116.416 57.8916 116.673 58.2983 116.673 58.8516C116.673 59.3049 116.526 59.6749 116.233 59.9616C115.939 60.2483 115.546 60.3916 115.053 60.3916ZM113.803 57.9916V59.8116H115.023C115.709 59.8116 116.053 59.5083 116.053 58.9016C116.053 58.2949 115.709 57.9916 115.023 57.9916H113.803ZM113.803 55.9316V57.4116H115.063C115.589 57.4116 115.853 57.1649 115.853 56.6716C115.853 56.1783 115.589 55.9316 115.063 55.9316H113.803ZM121.032 60.3916H120.352L122.882 53.3916H123.462L125.992 60.3916H125.312L124.612 58.4016H121.732L121.032 60.3916ZM123.172 54.2916L121.942 57.7816H124.402L123.172 54.2916ZM126.902 57.2916C126.902 54.6916 127.755 53.3916 129.462 53.3916H129.832C130.105 53.3916 130.292 53.3583 130.392 53.2916C130.498 53.2249 130.582 53.1016 130.642 52.9216H131.132C131.085 53.6216 130.708 53.9716 130.002 53.9716H129.512C128.385 53.9716 127.752 54.6783 127.612 56.0916C128.058 55.5449 128.682 55.2716 129.482 55.2716C130.135 55.2716 130.658 55.5216 131.052 56.0216C131.452 56.5216 131.652 57.1383 131.652 57.8716C131.652 58.6049 131.435 59.2216 131.002 59.7216C130.568 60.2216 129.995 60.4716 129.282 60.4716C128.542 60.4716 127.958 60.2016 127.532 59.6616C127.112 59.1149 126.902 58.3249 126.902 57.2916ZM128.022 56.4516C127.715 56.8516 127.562 57.3249 127.562 57.8716C127.562 58.4183 127.715 58.8916 128.022 59.2916C128.328 59.6916 128.748 59.8916 129.282 59.8916C129.815 59.8916 130.235 59.6916 130.542 59.2916C130.848 58.8916 131.002 58.4183 131.002 57.8716C131.002 57.3249 130.848 56.8516 130.542 56.4516C130.235 56.0516 129.815 55.8516 129.282 55.8516C128.748 55.8516 128.328 56.0516 128.022 56.4516ZM133.031 59.0116L133.641 58.9416C133.688 59.2149 133.794 59.4416 133.961 59.6216C134.134 59.8016 134.374 59.8916 134.681 59.8916C134.988 59.8916 135.231 59.7916 135.411 59.5916C135.598 59.3849 135.691 59.1283 135.691 58.8216C135.691 58.5149 135.608 58.2616 135.441 58.0616C135.274 57.8549 135.041 57.7516 134.741 57.7516C134.614 57.7516 134.481 57.7783 134.341 57.8316L134.011 57.4116L135.071 55.9316H133.261V55.3516H136.071V55.5016L134.751 57.3016C134.844 57.2816 134.931 57.2716 135.011 57.2716C135.391 57.2716 135.708 57.4149 135.961 57.7016C136.214 57.9883 136.341 58.3616 136.341 58.8216C136.341 59.2749 136.178 59.6649 135.851 59.9916C135.531 60.3116 135.141 60.4716 134.681 60.4716C134.241 60.4716 133.864 60.3383 133.551 60.0716C133.244 59.7983 133.071 59.4449 133.031 59.0116ZM137.666 58.9416C137.666 58.3949 137.869 57.9849 138.276 57.7116C138.689 57.4316 139.259 57.2916 139.986 57.2916H140.826V57.0716C140.826 56.2583 140.439 55.8516 139.666 55.8516C139.052 55.8516 138.652 56.1649 138.466 56.7916L137.866 56.6516C137.932 56.2316 138.132 55.8983 138.466 55.6516C138.806 55.3983 139.206 55.2716 139.666 55.2716C140.179 55.2716 140.602 55.4316 140.936 55.7516C141.276 56.0649 141.446 56.4983 141.446 57.0516V60.3916H140.976L140.826 59.6116C140.499 60.1849 139.969 60.4716 139.236 60.4716C138.776 60.4716 138.399 60.3483 138.106 60.1016C137.812 59.8483 137.666 59.4616 137.666 58.9416ZM138.316 58.9416C138.316 59.2483 138.402 59.4849 138.576 59.6516C138.749 59.8116 138.989 59.8916 139.296 59.8916C139.682 59.8916 140.032 59.7416 140.346 59.4416C140.666 59.1416 140.826 58.6816 140.826 58.0616V57.8716H140.006C138.879 57.8716 138.316 58.2283 138.316 58.9416ZM143.76 60.3916H143.14V55.3516H143.76V57.5816L145.87 55.3516H146.65L144.47 57.6616L146.83 60.3916H146.04L143.76 57.7416V60.3916ZM148.464 59.7016C148.031 59.1816 147.814 58.5716 147.814 57.8716C147.814 57.1716 148.031 56.5649 148.464 56.0516C148.897 55.5316 149.467 55.2716 150.174 55.2716C150.881 55.2716 151.451 55.5316 151.884 56.0516C152.317 56.5649 152.534 57.1716 152.534 57.8716C152.534 58.5716 152.317 59.1816 151.884 59.7016C151.451 60.2149 150.881 60.4716 150.174 60.4716C149.467 60.4716 148.897 60.2149 148.464 59.7016ZM148.924 56.4616C148.617 56.8616 148.464 57.3316 148.464 57.8716C148.464 58.4116 148.617 58.8849 148.924 59.2916C149.231 59.6916 149.647 59.8916 150.174 59.8916C150.701 59.8916 151.117 59.6916 151.424 59.2916C151.731 58.8849 151.884 58.4116 151.884 57.8716C151.884 57.3316 151.731 56.8616 151.424 56.4616C151.117 56.0549 150.701 55.8516 150.174 55.8516C149.647 55.8516 149.231 56.0549 148.924 56.4616ZM155.871 60.3916H154.001V55.3516H155.891C156.318 55.3516 156.658 55.4616 156.911 55.6816C157.164 55.9016 157.291 56.2083 157.291 56.6016C157.291 57.0549 157.101 57.3983 156.721 57.6316C157.234 57.8916 157.491 58.2983 157.491 58.8516C157.491 59.3049 157.344 59.6749 157.051 59.9616C156.758 60.2483 156.364 60.3916 155.871 60.3916ZM154.621 57.9916V59.8116H155.841C156.528 59.8116 156.871 59.5083 156.871 58.9016C156.871 58.2949 156.528 57.9916 155.841 57.9916H154.621ZM154.621 55.9316V57.4116H155.881C156.408 57.4116 156.671 57.1649 156.671 56.6716C156.671 56.1783 156.408 55.9316 155.881 55.9316H154.621ZM159.433 59.7016C158.999 59.1816 158.783 58.5716 158.783 57.8716C158.783 57.1716 158.999 56.5649 159.433 56.0516C159.866 55.5316 160.436 55.2716 161.143 55.2716C161.849 55.2716 162.419 55.5316 162.853 56.0516C163.286 56.5649 163.503 57.1716 163.503 57.8716C163.503 58.5716 163.286 59.1816 162.853 59.7016C162.419 60.2149 161.849 60.4716 161.143 60.4716C160.436 60.4716 159.866 60.2149 159.433 59.7016ZM159.893 56.4616C159.586 56.8616 159.433 57.3316 159.433 57.8716C159.433 58.4116 159.586 58.8849 159.893 59.2916C160.199 59.6916 160.616 59.8916 161.143 59.8916C161.669 59.8916 162.086 59.6916 162.393 59.2916C162.699 58.8849 162.853 58.4116 162.853 57.8716C162.853 57.3316 162.699 56.8616 162.393 56.4616C162.086 56.0549 161.669 55.8516 161.143 55.8516C160.616 55.8516 160.199 56.0549 159.893 56.4616Z" fill="white"/>
<path d="M117.458 17.8334C116.221 18.0201 115.059 17.2217 113.913 16.6174C113.199 16.2409 112.314 16.3253 111.751 15.5215C110.979 15.504 110.302 15.0111 109.592 14.7521C108.332 14.293 107.094 13.6888 106.005 12.6431C104.302 11.0086 102.316 9.90705 100.405 8.68671C99.5084 8.11368 98.7111 7.28203 97.6911 6.99736C97.4647 6.93436 97.2577 6.75722 97.0311 6.70919C96.6514 6.62889 96.4679 6.69927 96.8044 7.19997C96.906 7.35125 96.8049 7.70028 96.8071 7.9587C96.8179 9.2436 97.2514 9.94516 98.3306 10.4651C98.4747 10.5345 98.5895 10.748 98.729 10.7663C99.0257 10.8046 99.1203 11.0391 98.9888 11.2598C98.8619 11.4729 98.5944 11.56 98.3885 11.7026C98.0985 11.0617 97.4909 11.514 97.0573 11.0984C96.6993 10.7556 96.3357 10.3978 96.0819 9.97978C95.5709 9.13783 94.6638 8.9951 94.1581 8.18776C93.6681 8.34371 93.1647 8.45513 92.693 8.67057C92.3649 8.8203 92.0825 9.11721 91.7752 9.33887C91.6798 9.40771 91.5695 9.44563 91.4658 9.49794C91.5754 9.54927 91.6857 9.5975 91.7938 9.65252C92.8484 10.1917 93.5785 11.2149 94.3147 12.221C94.3947 12.3306 94.3889 12.5733 94.3616 12.739C94.3531 12.7911 94.1233 12.8558 94.0295 12.8093C92.9938 12.2962 91.8106 12.527 90.8098 11.8072C90.2062 11.3732 89.5179 11.112 88.9257 10.6594C88.1168 10.041 87.3633 9.31341 86.5852 8.63382C85.5806 7.75648 84.5392 6.93455 83.5851 5.98138C83.0919 5.48846 82.6881 4.81062 82.363 4.13084C82.024 3.42189 81.5138 3.05945 80.9713 2.69583C80.7305 2.53444 80.5105 2.31005 80.2563 2.19883C80.0124 2.09266 79.8336 1.78252 79.4644 2.22935C78.2446 3.70539 77.2384 5.3508 76.3383 7.12959C75.4335 8.91752 74.6492 10.8233 73.306 12.2326C73.0391 12.5126 72.8784 12.9398 72.6491 13.2791C72.2594 13.8557 71.8851 14.4561 71.446 14.9722C71.0379 15.4521 70.5795 15.8872 70.0964 16.2475C69.5264 16.6726 68.9586 17.143 68.2173 17.0621C67.9276 17.0306 67.6235 17.1953 67.3261 17.2705C67.4756 16.9087 67.6926 16.5643 67.7603 16.1807C67.8929 15.4289 68.3457 15.0089 68.7421 14.5144C69.9376 13.0229 71.1287 11.5258 72.3189 10.0278C72.3624 9.97336 72.3779 9.88566 72.4065 9.81333C72.3335 9.7793 72.2616 9.72135 72.1873 9.71591C71.9348 9.69724 71.6779 9.72641 71.4287 9.6846C70.503 9.52885 69.756 9.87438 69.1108 10.7189C68.853 11.056 68.4489 11.2365 68.0967 11.4515C67.4149 11.868 66.7311 12.2476 66.1776 12.9406C65.6922 13.5484 64.981 13.6651 64.3303 13.8063C63.9383 13.8911 63.6572 13.915 63.4773 14.4586C63.3472 14.8526 63.0089 15.1555 62.7338 15.4589C62.6286 15.5748 62.4435 15.5921 62.2907 15.628C62.2164 15.6453 62.1326 15.6016 62.0532 15.5855C62.0829 15.4768 62.087 15.3364 62.1464 15.2638C62.8186 14.4435 63.4194 13.5064 64.1083 12.7508C65.1099 11.6524 66.0608 10.3757 67.4407 9.86311C67.843 9.71358 68.181 9.29513 68.537 8.98013C68.5752 8.94629 68.5554 8.6974 68.53 8.68846C68.1492 8.55604 67.7661 8.42634 67.377 8.3402C67.1259 8.28459 66.9013 8.27584 66.8727 8.76624C66.8627 8.93754 66.5043 9.07871 66.3045 9.23271C65.6259 9.75538 64.9145 10.2034 64.3116 10.881C63.6934 11.5754 62.8984 11.9089 62.1064 12.221C61.8108 12.3376 61.4376 12.4232 61.2611 12.6857C60.3705 14.01 58.9756 14.6286 58.1989 16.154C57.8723 16.7957 57.1477 17.2194 56.5332 17.5359C55.4485 18.0944 54.5602 19.0104 53.628 19.8189C52.8412 20.501 52.0859 21.231 51.1932 21.6702C50.4999 22.0115 49.9472 22.7031 49.1786 22.8358C48.902 22.8834 48.627 22.9487 48.3493 22.9795C48.3162 22.983 48.2235 22.7549 48.2377 22.7389C48.9731 21.9053 49.7205 21.0877 50.4593 20.2582C51.0977 19.5413 51.9923 19.2467 52.4402 18.1731C52.6991 17.5523 53.2446 17.0533 53.9046 16.932C53.9777 16.9186 54.0785 16.7189 54.0742 16.6112C54.0704 16.5114 53.957 16.3739 53.867 16.3308C53.2851 16.0521 52.6689 15.8581 52.121 15.5038C51.8358 15.3195 51.7291 15.3941 51.49 15.5598C50.7577 16.0675 50.1835 16.7914 49.5999 17.5009C48.7793 18.4988 47.8512 19.1018 46.6562 18.9118C46.0202 18.8107 45.5189 19.1411 44.9624 19.5185C44.1483 20.0705 43.4388 20.9434 42.4321 21.0196C42.1748 21.5281 41.928 20.6618 41.6321 21.0233C41.4115 21.2928 41.0942 21.4387 40.8426 21.6759C40.6423 21.8649 40.5988 21.8171 40.5666 21.5316C40.4778 20.7441 40.8418 20.3329 41.347 19.9957C43.275 18.7086 45.1823 17.3759 47.2093 16.3218C47.6072 16.1151 47.9618 15.7387 48.2862 15.3737C48.9769 14.5971 49.7191 13.9251 50.5337 13.3519C51.3353 12.788 52.0102 12.6876 52.9439 13.102C53.9032 13.5276 54.8358 14.0108 55.6888 14.7126C56.0572 15.0157 56.6757 14.8685 56.8915 14.411C57.3719 13.3931 57.9529 12.5278 58.8805 12.0924C58.9532 12.0584 59.0097 11.9606 59.0643 11.8822C59.8496 10.7576 60.8249 10.0397 61.9969 9.64572C62.728 9.40013 63.3295 8.77596 63.9208 8.21673C64.6234 7.55211 65.5281 7.28281 66.1183 6.394C66.4465 5.89972 66.9702 6.07452 67.3857 6.24855C68.0854 6.54119 68.7506 6.95459 69.4443 7.27212C70.141 7.59101 70.841 7.93536 71.5649 8.11387C72.056 8.23501 72.4968 8.34643 72.8645 8.79132C72.9925 8.94649 73.2138 9.10729 73.3695 9.07832C73.5884 9.03787 73.8162 8.86424 73.9868 8.67543C74.6854 7.90212 75.4213 7.14261 75.8097 6.06363C76.256 4.82423 77.0606 3.92045 77.6911 2.85488C77.9135 2.47902 78.2122 2.1718 78.4663 1.82238C78.6979 1.50408 78.9448 1.19413 79.1351 0.840431C79.7098 -0.228243 80.5673 0.00489044 81.3913 0.0601139C81.6527 0.563534 82.0719 0.358204 82.4248 0.375509C83.1586 0.411871 83.813 0.743597 84.4835 1.05724C85.6201 1.58905 86.6935 2.32152 87.9582 2.45044C88.37 2.49244 88.8476 2.71722 89.2478 3.11272C89.8879 3.74565 90.7165 3.985 91.4747 4.36301C91.7646 4.50748 92.1374 4.49796 92.3617 4.72371C92.8485 5.21371 93.4766 5.20438 93.8882 4.99632C94.3951 4.74063 94.8517 4.83863 95.3293 4.79546C95.6225 4.76882 95.9657 4.92554 96.2044 4.78729C96.5977 4.5594 96.9544 4.09098 97.4044 4.24829C98.229 4.53646 99.066 4.84952 99.8246 5.32688C101.287 6.24739 102.707 7.27115 104.127 8.28771C104.978 8.89613 105.8 9.56482 106.627 10.2203C106.93 10.4608 107.043 11.0494 107.485 11.0234C108.224 10.98 108.965 11.2563 109.704 10.9081C110.796 10.3939 111.903 9.92766 113.009 9.46235C113.785 9.13607 114.557 8.77324 115.354 8.55604C116.474 8.25076 117.605 8.44424 118.398 9.48919C119.495 10.933 120.968 11.6164 122.242 12.6929C122.337 12.773 122.451 12.8218 122.56 12.8735C122.973 13.0693 123.313 13.3622 123.483 13.8883C123.002 13.8574 122.499 13.9222 122.045 13.7695C121.565 13.6079 121.105 13.2877 120.684 12.9482C120.222 12.576 119.576 12.5774 119.269 11.8634C119.206 11.7181 118.908 11.6857 118.715 11.6711C117.989 11.6172 117.225 11.7749 116.645 11.014C116.603 10.9588 116.486 10.9952 116.406 10.9759C116.074 10.8966 115.925 11.0866 116.022 11.4718C116.265 12.4463 116.357 12.5783 117.424 13.4885C117.774 13.7868 117.805 13.9513 117.507 14.193C117.173 14.4637 116.872 14.6552 116.388 14.4242C115.591 14.0431 114.991 13.4261 114.473 12.6495C114.212 12.2577 113.911 12.1296 113.505 12.122C112.727 12.1074 111.967 12.102 111.291 12.6742C111.184 12.7646 111.055 12.8165 110.936 12.8862C111.055 13.0285 111.155 13.2488 111.296 13.3015C113.781 14.2298 116.083 15.6415 118.317 17.2361C118.452 17.3324 118.601 17.4004 118.733 17.5004C118.802 17.5525 118.851 17.646 118.908 17.7209C118.84 17.7702 118.772 17.8614 118.704 17.8622C118.325 17.8659 117.945 17.8474 117.458 17.8334Z" fill="#E1C9A5"/>
<path d="M74.3385 18.2075C74.2026 18.094 74.1083 18.0562 74.08 17.981C74.0485 17.8972 74.0413 17.7368 74.0843 17.6829C74.5431 17.112 74.9748 16.5201 75.3919 15.8985C75.7859 15.3118 76.4132 14.9614 76.9332 14.4992C77.1635 14.2947 77.4542 14.1249 77.5943 13.8465C78.257 12.5283 79.2253 11.6238 80.2442 10.7801C80.3696 10.6764 80.5302 10.629 80.6799 10.5798C80.757 10.5545 80.8461 10.5829 80.9296 10.587C80.9199 10.6963 80.9246 10.811 80.8978 10.9137C80.7107 11.6286 80.1772 11.988 79.8053 12.5145C79.7465 12.5976 79.7404 12.8309 79.7938 12.9133C79.8526 13.004 80.0437 13.0765 80.1157 13.0257C80.6967 12.6172 81.2818 12.2664 81.9492 12.0757C82.2972 11.9765 82.5843 11.5577 83.0057 11.6634C82.7664 11.9851 82.5008 12.2835 82.2926 12.6331C81.8615 13.3569 81.1724 13.5875 80.5783 13.9618C79.7359 14.4922 78.7818 14.7647 78.1197 15.6811C77.2123 15.8648 76.6258 16.9325 75.6419 16.9864C75.344 17.0027 75.0626 17.4955 74.7753 17.7727C74.6216 17.9211 74.4715 18.0749 74.3385 18.2075Z" fill="#E1C9A5"/>
<path d="M60.4664 25.2817C60.2829 25.1752 60.0435 25.1172 60.0285 25.0109C59.9962 24.7859 60.0124 24.4485 60.1293 24.3101C60.777 23.5422 61.3559 22.6661 62.1935 22.1725C62.924 21.7422 63.5326 21.1037 64.1624 20.4927C64.821 19.8538 65.5213 19.278 66.2161 18.6976C66.3234 18.608 66.499 18.6412 66.6431 18.6175C66.6633 18.8119 66.7464 19.0387 66.6926 19.1948C66.4875 19.7886 66.2293 20.3903 65.7625 20.7072C64.8385 21.3349 64.219 22.3763 63.4118 23.1518C62.6972 23.8384 62.0315 24.6412 61.1143 24.9562C60.8926 25.0323 60.6851 25.1701 60.4664 25.2817Z" fill="#E1C9A5"/>
<path d="M40.2554 28.0347C40.1298 28.031 39.9901 28.0674 39.883 28.011C39.7989 27.9668 39.7322 27.8165 39.7023 27.6964C39.6855 27.6291 39.7395 27.4846 39.7943 27.4483C40.7189 26.8317 41.6528 26.2357 42.5757 25.615C43.0663 25.2853 43.5347 24.9512 44.1397 25.0297C44.6084 25.0908 44.9395 24.6904 45.2962 24.3612C45.7855 23.9094 46.2757 24.1921 46.3216 24.9211C46.3316 25.0782 46.1706 25.3953 46.156 25.3893C45.6349 25.1777 45.4573 25.8406 45.0908 25.9983C44.8346 26.1083 44.5679 26.2845 44.3116 26.2707C43.7055 26.2382 43.2714 26.5972 42.7692 26.9413C41.9982 27.4691 41.126 27.7751 40.297 28.1753C40.2831 28.1284 40.2693 28.0816 40.2554 28.0347Z" fill="#E1C9A5"/>
<path d="M124.194 22.68C123.996 22.5591 123.644 22.4277 123.381 22.1619C123.037 21.8132 122.672 21.5779 122.263 21.3611C121.288 20.8445 121.072 20.6006 120.364 19.5687C120.257 19.4128 120.254 19.1487 120.204 18.9346C120.438 18.8553 120.674 18.7106 120.907 18.7178C121.081 18.7231 121.26 18.9066 121.42 19.0418C122.259 19.7523 123.255 20.126 124.073 20.8721C124.373 21.1451 124.608 21.5272 124.861 21.8719C124.956 22.0007 125.017 22.165 125.094 22.3131C124.926 22.4391 124.762 22.5789 124.586 22.6845C124.518 22.7246 124.42 22.6867 124.194 22.68Z" fill="#E1C9A5"/>
<path d="M38.5998 22.8746C38.4874 23.0926 38.4496 23.2674 38.3636 23.3174C37.205 23.99 36.0503 24.6754 34.8706 25.2887C34.4447 25.5101 33.9584 25.5875 33.4925 25.6463C33.3369 25.6659 33.1466 25.4405 33.0035 25.284C32.979 25.2572 33.0892 24.9844 33.1779 24.8743C33.6057 24.3435 34.0392 23.8803 34.7181 23.8111C35.1201 23.7701 35.5773 23.5208 35.8749 23.1855C36.392 22.6032 37.0877 22.8177 37.6487 22.4334C37.8296 22.3094 38.2439 22.6969 38.5998 22.8746Z" fill="#E1C9A5"/>
<path d="M99.3076 17.6241C98.938 17.6978 98.6412 17.5065 98.3836 17.1166C97.6141 15.9517 96.4963 15.3265 95.5515 14.4321C95.3999 14.2888 95.1969 14.2262 95.0492 14.079C94.972 14.0021 94.9166 13.8087 94.9384 13.6928C94.9558 13.6 95.1055 13.4822 95.1958 13.483C95.8207 13.4869 96.4845 13.4176 96.749 14.3733C97.4231 14.6761 97.7126 15.6194 98.5282 15.8014C99.0103 15.9087 99.4087 16.6132 99.8283 17.0717C99.9001 17.15 99.9414 17.3725 99.9018 17.4718C99.865 17.5646 99.7047 17.5961 99.5936 17.6274C99.5145 17.6498 99.4274 17.6274 99.3076 17.6241Z" fill="#E1C9A5"/>
<path d="M90.3102 16.5319C90.2607 16.5799 90.1813 16.7236 90.0956 16.7291C89.6282 16.7594 89.2656 16.4946 88.9302 16.1055C88.5825 15.7022 88.1731 15.3788 87.8255 14.9754C87.5687 14.6777 87.2464 14.416 87.3009 13.848C87.318 13.6695 87.0814 13.4601 86.9712 13.2567C86.6998 12.7552 86.6274 12.273 86.7223 12.3163C86.9369 12.4147 87.1293 12.5942 87.3209 12.7581C87.8374 13.2001 88.4053 13.5808 88.848 14.1161C89.3925 14.7745 89.8312 15.5642 90.312 16.3009C90.332 16.3314 90.3128 16.4007 90.3102 16.5319Z" fill="white"/>
<path d="M111.073 17.865C111.388 18.0583 111.755 18.2312 112.074 18.4913C112.636 18.9478 113.173 19.4491 113.707 19.9548C113.779 20.0231 113.819 20.2585 113.778 20.3557C113.738 20.4489 113.546 20.5411 113.469 20.4995C112.507 19.9737 111.391 19.7751 110.714 18.6279C110.627 18.4791 110.599 18.2772 110.543 18.0998C110.689 18.035 110.836 17.9702 111.073 17.865Z" fill="#E1C9A5"/>
<path d="M127.257 16.9907C126.91 16.7629 126.551 16.5746 126.243 16.2993C126.131 16.1997 126.06 15.8384 126.121 15.6929C126.198 15.5124 126.334 15.1451 126.65 15.5435C126.88 15.8314 127.271 15.9145 127.564 16.1417C127.679 16.2314 127.72 16.4641 127.795 16.6316C127.639 16.7353 127.484 16.839 127.257 16.9907Z" fill="#E1C9A5"/>
<path d="M99.197 12.9923C99.2796 12.8692 99.3656 12.6648 99.4156 12.6773C99.9553 12.8117 100.524 12.8849 100.934 13.408C100.997 13.4884 100.987 13.6852 100.967 13.8185C100.959 13.873 100.822 13.9553 100.767 13.9341C100.321 13.7597 99.8754 13.5768 99.44 13.3644C99.345 13.3181 99.2918 13.1434 99.197 12.9923Z" fill="#E1C9A5"/>
<path d="M119.092 14.777C119.216 14.7803 119.345 14.7583 119.463 14.7926C119.766 14.8803 120.016 15.1204 119.948 15.5066C119.875 15.9219 119.414 15.7869 119.346 15.6881C119.044 15.2509 118.662 15.4451 118.319 15.3618C118.268 15.3494 118.197 15.1994 118.208 15.128C118.226 14.998 118.288 14.7811 118.348 14.7727C118.593 14.7387 118.844 14.7698 119.092 14.777Z" fill="#E1C9A5"/>
<path d="M77.904 20.6738C78.07 20.7522 78.1771 20.8025 78.2841 20.8531C78.1673 20.9173 78.0538 21.0184 77.9325 21.0349C77.8267 21.0493 77.7121 20.9684 77.6014 20.9298C77.7051 20.8419 77.8089 20.7541 77.904 20.6738Z" fill="#E1C9A5"/>
<path d="M60.6275 17.0612C60.3839 17.1903 60.2478 17.2857 60.1016 17.3277C60.0482 17.343 59.9704 17.2309 59.9036 17.1769C59.9921 17.0561 60.0712 16.9199 60.1748 16.8242C60.2042 16.7974 60.3061 16.8881 60.6275 17.0612Z" fill="#E1C9A5"/>
</svg>
