<svg width="165" height="66" viewBox="0 0 165 66" fill="none" xmlns="http://www.w3.org/2000/svg">
<path d="M9.64 51V32.808H21.64V33.936H11.968V40.944H20.248V42.072H11.968V49.872H21.64V51H9.64ZM31.3358 51H26.2478V32.808H31.2398C32.8238 32.808 34.2718 32.984 35.5838 33.336C36.9118 33.688 38.0878 34.216 39.1118 34.92C40.1518 35.624 40.9598 36.56 41.5358 37.728C42.1278 38.896 42.4238 40.248 42.4238 41.784C42.4238 43.32 42.1278 44.688 41.5358 45.888C40.9598 47.088 40.1598 48.056 39.1358 48.792C38.1118 49.512 36.9358 50.064 35.6078 50.448C34.2958 50.816 32.8718 51 31.3358 51ZM28.5758 49.944H31.2398C33.8798 49.944 35.9598 49.304 37.4798 48.024C39.0158 46.728 39.7838 44.68 39.7838 41.88C39.7838 39.08 39.0158 37.048 37.4798 35.784C35.9598 34.504 33.8798 33.864 31.2398 33.864H28.5758V49.944ZM47.0275 51V32.808H59.0275V33.936H49.3555V40.944H57.6355V42.072H49.3555V49.872H59.0275V51H47.0275ZM63.6353 51V32.808H65.9633V49.872H75.4913V51H63.6353ZM81.2723 51.144L75.2483 32.808H77.6963L82.5683 47.904L87.8243 32.808H89.0723L94.4243 47.784L99.3443 32.808H100.712L94.6883 51.144H93.2483L87.9203 36.408L82.7123 51.144H81.2723ZM104.492 51V32.808H116.492V33.936H106.82V40.944H115.1V42.072H106.82V49.872H116.492V51H104.492ZM121.099 51V32.808H123.427V51H121.099ZM134.261 51.288C132.133 51.288 130.373 50.96 128.981 50.304L128.501 45.288H129.221L130.541 49.176C130.797 49.912 132.029 50.28 134.237 50.28C135.533 50.28 136.573 49.984 137.357 49.392C138.141 48.784 138.533 47.952 138.533 46.896C138.533 45.84 138.197 45.024 137.525 44.448C136.853 43.856 135.781 43.32 134.309 42.84L133.013 42.408C129.973 41.384 128.453 39.632 128.453 37.152C128.453 35.712 129.077 34.568 130.325 33.72C131.589 32.856 133.101 32.424 134.861 32.424C136.685 32.424 138.117 32.688 139.157 33.216L139.805 37.896H139.085L137.717 34.464C137.445 33.776 136.445 33.432 134.717 33.432C133.565 33.432 132.597 33.696 131.813 34.224C131.045 34.736 130.661 35.456 130.661 36.384C130.661 37.248 130.901 37.968 131.381 38.544C131.861 39.12 132.629 39.584 133.685 39.936L134.981 40.368C136.885 40.992 138.325 41.728 139.301 42.576C140.293 43.424 140.789 44.592 140.789 46.08C140.789 47.6 140.157 48.848 138.893 49.824C137.629 50.8 136.085 51.288 134.261 51.288ZM150.306 51.288C148.178 51.288 146.418 50.96 145.026 50.304L144.546 45.288H145.266L146.586 49.176C146.842 49.912 148.074 50.28 150.282 50.28C151.578 50.28 152.618 49.984 153.402 49.392C154.186 48.784 154.578 47.952 154.578 46.896C154.578 45.84 154.242 45.024 153.57 44.448C152.898 43.856 151.826 43.32 150.354 42.84L149.058 42.408C146.018 41.384 144.498 39.632 144.498 37.152C144.498 35.712 145.122 34.568 146.37 33.72C147.634 32.856 149.146 32.424 150.906 32.424C152.73 32.424 154.162 32.688 155.202 33.216L155.85 37.896H155.13L153.762 34.464C153.49 33.776 152.49 33.432 150.762 33.432C149.61 33.432 148.642 33.696 147.858 34.224C147.09 34.736 146.706 35.456 146.706 36.384C146.706 37.248 146.946 37.968 147.426 38.544C147.906 39.12 148.674 39.584 149.73 39.936L151.026 40.368C152.93 40.992 154.37 41.728 155.346 42.576C156.338 43.424 156.834 44.592 156.834 46.08C156.834 47.6 156.202 48.848 154.938 49.824C153.674 50.8 152.13 51.288 150.306 51.288Z" fill="#524534"/>
<path d="M1.6 64H0.96V58.96H4.06V59.54H1.6V64ZM5.5518 63.31C5.11846 62.79 4.9018 62.18 4.9018 61.48C4.9018 60.78 5.11846 60.1733 5.5518 59.66C5.98513 59.14 6.55513 58.88 7.2618 58.88C7.96846 58.88 8.53846 59.14 8.9718 59.66C9.40513 60.1733 9.6218 60.78 9.6218 61.48C9.6218 62.18 9.40513 62.79 8.9718 63.31C8.53846 63.8233 7.96846 64.08 7.2618 64.08C6.55513 64.08 5.98513 63.8233 5.5518 63.31ZM6.0118 60.07C5.70513 60.47 5.5518 60.94 5.5518 61.48C5.5518 62.02 5.70513 62.4933 6.0118 62.9C6.31846 63.3 6.73513 63.5 7.2618 63.5C7.78846 63.5 8.20513 63.3 8.5118 62.9C8.81846 62.4933 8.9718 62.02 8.9718 61.48C8.9718 60.94 8.81846 60.47 8.5118 60.07C8.20513 59.6633 7.78846 59.46 7.2618 59.46C6.73513 59.46 6.31846 59.6633 6.0118 60.07ZM11.5816 63.32C11.1883 62.8067 10.9916 62.1933 10.9916 61.48C10.9916 60.7667 11.1883 60.1567 11.5816 59.65C11.975 59.1367 12.5216 58.88 13.2216 58.88C14.2283 58.88 14.905 59.3433 15.2516 60.27L14.6916 60.49C14.4116 59.8033 13.9216 59.46 13.2216 59.46C12.7083 59.46 12.315 59.6533 12.0416 60.04C11.775 60.42 11.6416 60.9 11.6416 61.48C11.6416 62.06 11.775 62.5433 12.0416 62.93C12.315 63.31 12.7083 63.5 13.2216 63.5C13.9216 63.5 14.4116 63.1567 14.6916 62.47L15.2516 62.69C14.905 63.6167 14.2283 64.08 13.2216 64.08C12.5216 64.08 11.975 63.8267 11.5816 63.32ZM17.756 59.54H16.336V58.96H19.796V59.54H18.376V64H17.756V59.54ZM21.8583 64H21.1983V58.96H21.8183V63.02L24.4783 58.96H25.1383V64H24.5183V59.94L21.8583 64ZM27.664 64H27.044V58.96H27.664V61.03H30.124V58.96H30.744V64H30.124V61.61H27.664V64ZM32.8753 63.35C32.462 62.8567 32.2553 62.2333 32.2553 61.48C32.2553 60.7267 32.462 60.1067 32.8753 59.62C33.2886 59.1267 33.8286 58.88 34.4953 58.88C35.1486 58.88 35.6786 59.0933 36.0853 59.52C36.4986 59.9467 36.7053 60.5067 36.7053 61.2V61.48H32.9053C32.9053 62.08 33.0453 62.5667 33.3253 62.94C33.612 63.3133 34.002 63.5 34.4953 63.5C34.8753 63.5 35.182 63.4167 35.4153 63.25C35.6486 63.0833 35.8586 62.8067 36.0453 62.42L36.5953 62.69C36.342 63.19 36.0486 63.5467 35.7153 63.76C35.382 63.9733 34.9753 64.08 34.4953 64.08C33.8286 64.08 33.2886 63.8367 32.8753 63.35ZM32.9453 60.9H36.0653C36.0053 60.4467 35.842 60.0933 35.5753 59.84C35.3086 59.5867 34.9486 59.46 34.4953 59.46C34.0953 59.46 33.7553 59.5933 33.4753 59.86C33.202 60.1267 33.0253 60.4733 32.9453 60.9ZM38.3629 61.66V58.96H38.9829V61.6C38.9829 61.9067 39.0662 62.1367 39.2329 62.29C39.3996 62.4433 39.6196 62.52 39.8929 62.52C40.4862 62.52 41.0162 62.1733 41.4829 61.48V58.96H42.1029V64H41.4829V62.27C41.0229 62.81 40.4562 63.08 39.7829 63.08C39.3496 63.08 39.0029 62.9533 38.7429 62.7C38.4896 62.44 38.3629 62.0933 38.3629 61.66ZM44.7714 64H44.1514V58.96H44.7714V61.03H47.2314V58.96H47.8514V64H47.2314V61.61H44.7714V64ZM51.453 64H49.753V58.96H50.373V60.88H51.453C51.9996 60.88 52.4163 61.02 52.703 61.3C52.9896 61.5733 53.133 61.9533 53.133 62.44C53.133 62.9267 52.9896 63.31 52.703 63.59C52.4163 63.8633 51.9996 64 51.453 64ZM50.373 61.46V63.42H51.183C51.623 63.42 51.943 63.3433 52.143 63.19C52.343 63.03 52.443 62.78 52.443 62.44C52.443 62.1 52.343 61.8533 52.143 61.7C51.943 61.54 51.623 61.46 51.183 61.46H50.373ZM54.783 64H54.163V58.96H54.783V64ZM57.2645 64H56.6045V58.96H57.2245V63.02L59.8845 58.96H60.5445V64H59.9245V59.94L57.2645 64ZM57.5245 57H58.0345C58.0345 57.18 58.0812 57.3233 58.1745 57.43C58.2679 57.5367 58.4012 57.59 58.5745 57.59C58.9345 57.59 59.1145 57.3933 59.1145 57H59.6245C59.6245 57.3267 59.5312 57.59 59.3445 57.79C59.1645 57.99 58.9079 58.09 58.5745 58.09C58.2545 58.09 57.9979 57.99 57.8045 57.79C57.6179 57.59 57.5245 57.3267 57.5245 57ZM66.1034 64H65.4834V58.96H66.1034V61.19L68.2134 58.96H68.9934L66.8134 61.27L69.1734 64H68.3834L66.1034 61.35V64ZM70.8077 63.31C70.3743 62.79 70.1577 62.18 70.1577 61.48C70.1577 60.78 70.3743 60.1733 70.8077 59.66C71.241 59.14 71.811 58.88 72.5177 58.88C73.2243 58.88 73.7943 59.14 74.2277 59.66C74.661 60.1733 74.8777 60.78 74.8777 61.48C74.8777 62.18 74.661 62.79 74.2277 63.31C73.7943 63.8233 73.2243 64.08 72.5177 64.08C71.811 64.08 71.241 63.8233 70.8077 63.31ZM71.2677 60.07C70.961 60.47 70.8077 60.94 70.8077 61.48C70.8077 62.02 70.961 62.4933 71.2677 62.9C71.5743 63.3 71.991 63.5 72.5177 63.5C73.0443 63.5 73.461 63.3 73.7677 62.9C74.0743 62.4933 74.2277 62.02 74.2277 61.48C74.2277 60.94 74.0743 60.47 73.7677 60.07C73.461 59.6633 73.0443 59.46 72.5177 59.46C71.991 59.46 71.5743 59.6633 71.2677 60.07ZM77.0429 64H76.4229V58.96H77.2629L78.6929 62.52L80.1229 58.96H80.9629V64H80.3429V59.94L78.9129 63.54H78.4729L77.0429 59.94V64ZM83.5038 64H82.8838V58.96H86.5938V64H85.9738V59.54H83.5038V64ZM87.7803 64V63.42C88.127 63.42 88.3703 63.35 88.5103 63.21C88.657 63.0633 88.7436 62.8233 88.7703 62.49L89.1203 58.96H92.3203V64H91.7003V59.54H89.7003L89.3803 62.64C89.327 63.1133 89.177 63.46 88.9303 63.68C88.6903 63.8933 88.307 64 87.7803 64ZM94.4827 63.35C94.0694 62.8567 93.8627 62.2333 93.8627 61.48C93.8627 60.7267 94.0694 60.1067 94.4827 59.62C94.8961 59.1267 95.4361 58.88 96.1027 58.88C96.7561 58.88 97.2861 59.0933 97.6927 59.52C98.1061 59.9467 98.3127 60.5067 98.3127 61.2V61.48H94.5127C94.5127 62.08 94.6527 62.5667 94.9327 62.94C95.2194 63.3133 95.6094 63.5 96.1027 63.5C96.4827 63.5 96.7894 63.4167 97.0227 63.25C97.2561 63.0833 97.4661 62.8067 97.6527 62.42L98.2027 62.69C97.9494 63.19 97.6561 63.5467 97.3227 63.76C96.9894 63.9733 96.5827 64.08 96.1027 64.08C95.4361 64.08 94.8961 63.8367 94.4827 63.35ZM94.5527 60.9H97.6727C97.6127 60.4467 97.4494 60.0933 97.1827 59.84C96.9161 59.5867 96.5561 59.46 96.1027 59.46C95.7027 59.46 95.3627 59.5933 95.0827 59.86C94.8094 60.1267 94.6327 60.4733 94.5527 60.9ZM100.426 64H99.8057V58.96H100.426V61.19L102.536 58.96H103.316L101.136 61.27L103.496 64H102.706L100.426 61.35V64ZM105.07 63.32C104.677 62.8067 104.48 62.1933 104.48 61.48C104.48 60.7667 104.677 60.1567 105.07 59.65C105.463 59.1367 106.01 58.88 106.71 58.88C107.717 58.88 108.393 59.3433 108.74 60.27L108.18 60.49C107.9 59.8033 107.41 59.46 106.71 59.46C106.197 59.46 105.803 59.6533 105.53 60.04C105.263 60.42 105.13 60.9 105.13 61.48C105.13 62.06 105.263 62.5433 105.53 62.93C105.803 63.31 106.197 63.5 106.71 63.5C107.41 63.5 107.9 63.1567 108.18 62.47L108.74 62.69C108.393 63.6167 107.717 64.08 106.71 64.08C106.01 64.08 105.463 63.8267 105.07 63.32ZM115.053 64H113.183V58.96H115.073C115.499 58.96 115.839 59.07 116.093 59.29C116.346 59.51 116.473 59.8167 116.473 60.21C116.473 60.6633 116.283 61.0067 115.903 61.24C116.416 61.5 116.673 61.9067 116.673 62.46C116.673 62.9133 116.526 63.2833 116.233 63.57C115.939 63.8567 115.546 64 115.053 64ZM113.803 61.6V63.42H115.023C115.709 63.42 116.053 63.1167 116.053 62.51C116.053 61.9033 115.709 61.6 115.023 61.6H113.803ZM113.803 59.54V61.02H115.063C115.589 61.02 115.853 60.7733 115.853 60.28C115.853 59.7867 115.589 59.54 115.063 59.54H113.803ZM121.032 64H120.352L122.882 57H123.462L125.992 64H125.312L124.612 62.01H121.732L121.032 64ZM123.172 57.9L121.942 61.39H124.402L123.172 57.9ZM126.902 60.9C126.902 58.3 127.755 57 129.462 57H129.832C130.105 57 130.292 56.9667 130.392 56.9C130.498 56.8333 130.582 56.71 130.642 56.53H131.132C131.085 57.23 130.708 57.58 130.002 57.58H129.512C128.385 57.58 127.752 58.2867 127.612 59.7C128.058 59.1533 128.682 58.88 129.482 58.88C130.135 58.88 130.658 59.13 131.052 59.63C131.452 60.13 131.652 60.7467 131.652 61.48C131.652 62.2133 131.435 62.83 131.002 63.33C130.568 63.83 129.995 64.08 129.282 64.08C128.542 64.08 127.958 63.81 127.532 63.27C127.112 62.7233 126.902 61.9333 126.902 60.9ZM128.022 60.06C127.715 60.46 127.562 60.9333 127.562 61.48C127.562 62.0267 127.715 62.5 128.022 62.9C128.328 63.3 128.748 63.5 129.282 63.5C129.815 63.5 130.235 63.3 130.542 62.9C130.848 62.5 131.002 62.0267 131.002 61.48C131.002 60.9333 130.848 60.46 130.542 60.06C130.235 59.66 129.815 59.46 129.282 59.46C128.748 59.46 128.328 59.66 128.022 60.06ZM133.031 62.62L133.641 62.55C133.688 62.8233 133.794 63.05 133.961 63.23C134.134 63.41 134.374 63.5 134.681 63.5C134.988 63.5 135.231 63.4 135.411 63.2C135.598 62.9933 135.691 62.7367 135.691 62.43C135.691 62.1233 135.608 61.87 135.441 61.67C135.274 61.4633 135.041 61.36 134.741 61.36C134.614 61.36 134.481 61.3867 134.341 61.44L134.011 61.02L135.071 59.54H133.261V58.96H136.071V59.11L134.751 60.91C134.844 60.89 134.931 60.88 135.011 60.88C135.391 60.88 135.708 61.0233 135.961 61.31C136.214 61.5967 136.341 61.97 136.341 62.43C136.341 62.8833 136.178 63.2733 135.851 63.6C135.531 63.92 135.141 64.08 134.681 64.08C134.241 64.08 133.864 63.9467 133.551 63.68C133.244 63.4067 133.071 63.0533 133.031 62.62ZM137.666 62.55C137.666 62.0033 137.869 61.5933 138.276 61.32C138.689 61.04 139.259 60.9 139.986 60.9H140.826V60.68C140.826 59.8667 140.439 59.46 139.666 59.46C139.052 59.46 138.652 59.7733 138.466 60.4L137.866 60.26C137.932 59.84 138.132 59.5067 138.466 59.26C138.806 59.0067 139.206 58.88 139.666 58.88C140.179 58.88 140.602 59.04 140.936 59.36C141.276 59.6733 141.446 60.1067 141.446 60.66V64H140.976L140.826 63.22C140.499 63.7933 139.969 64.08 139.236 64.08C138.776 64.08 138.399 63.9567 138.106 63.71C137.812 63.4567 137.666 63.07 137.666 62.55ZM138.316 62.55C138.316 62.8567 138.402 63.0933 138.576 63.26C138.749 63.42 138.989 63.5 139.296 63.5C139.682 63.5 140.032 63.35 140.346 63.05C140.666 62.75 140.826 62.29 140.826 61.67V61.48H140.006C138.879 61.48 138.316 61.8367 138.316 62.55ZM143.76 64H143.14V58.96H143.76V61.19L145.87 58.96H146.65L144.47 61.27L146.83 64H146.04L143.76 61.35V64ZM148.464 63.31C148.031 62.79 147.814 62.18 147.814 61.48C147.814 60.78 148.031 60.1733 148.464 59.66C148.897 59.14 149.467 58.88 150.174 58.88C150.881 58.88 151.451 59.14 151.884 59.66C152.317 60.1733 152.534 60.78 152.534 61.48C152.534 62.18 152.317 62.79 151.884 63.31C151.451 63.8233 150.881 64.08 150.174 64.08C149.467 64.08 148.897 63.8233 148.464 63.31ZM148.924 60.07C148.617 60.47 148.464 60.94 148.464 61.48C148.464 62.02 148.617 62.4933 148.924 62.9C149.231 63.3 149.647 63.5 150.174 63.5C150.701 63.5 151.117 63.3 151.424 62.9C151.731 62.4933 151.884 62.02 151.884 61.48C151.884 60.94 151.731 60.47 151.424 60.07C151.117 59.6633 150.701 59.46 150.174 59.46C149.647 59.46 149.231 59.6633 148.924 60.07ZM155.871 64H154.001V58.96H155.891C156.318 58.96 156.658 59.07 156.911 59.29C157.164 59.51 157.291 59.8167 157.291 60.21C157.291 60.6633 157.101 61.0067 156.721 61.24C157.234 61.5 157.491 61.9067 157.491 62.46C157.491 62.9133 157.344 63.2833 157.051 63.57C156.758 63.8567 156.364 64 155.871 64ZM154.621 61.6V63.42H155.841C156.528 63.42 156.871 63.1167 156.871 62.51C156.871 61.9033 156.528 61.6 155.841 61.6H154.621ZM154.621 59.54V61.02H155.881C156.408 61.02 156.671 60.7733 156.671 60.28C156.671 59.7867 156.408 59.54 155.881 59.54H154.621ZM159.433 63.31C158.999 62.79 158.783 62.18 158.783 61.48C158.783 60.78 158.999 60.1733 159.433 59.66C159.866 59.14 160.436 58.88 161.143 58.88C161.849 58.88 162.419 59.14 162.853 59.66C163.286 60.1733 163.503 60.78 163.503 61.48C163.503 62.18 163.286 62.79 162.853 63.31C162.419 63.8233 161.849 64.08 161.143 64.08C160.436 64.08 159.866 63.8233 159.433 63.31ZM159.893 60.07C159.586 60.47 159.433 60.94 159.433 61.48C159.433 62.02 159.586 62.4933 159.893 62.9C160.199 63.3 160.616 63.5 161.143 63.5C161.669 63.5 162.086 63.3 162.393 62.9C162.699 62.4933 162.853 62.02 162.853 61.48C162.853 60.94 162.699 60.47 162.393 60.07C162.086 59.6633 161.669 59.46 161.143 59.46C160.616 59.46 160.199 59.6633 159.893 60.07Z" fill="black"/>
<path d="M117.216 23.9686C115.971 24.1048 114.852 23.2025 113.739 22.5063C113.046 22.0727 112.157 22.1181 111.638 21.2398C110.867 21.183 110.217 20.628 109.521 20.3188C108.287 19.7706 107.082 19.0701 106.049 17.9097C104.435 16.0961 102.508 14.8322 100.664 13.4464C99.7983 12.7957 99.0456 11.8763 98.0418 11.5246C97.8191 11.4467 97.6216 11.2491 97.3978 11.187C97.0228 11.0832 96.8358 11.1486 97.1456 11.695C97.2391 11.8601 97.1198 12.2244 97.1085 12.4979C97.0519 13.8579 97.448 14.6217 98.4986 15.2252C98.6389 15.3058 98.7423 15.5374 98.8807 15.5636C99.175 15.6189 99.2572 15.8717 99.1143 16.0987C98.9763 16.3178 98.7046 16.3968 98.4915 16.5374C98.2355 15.8449 97.6049 16.2933 97.1936 15.8322C96.8541 15.4518 96.5097 15.0552 96.2781 14.6004C95.812 13.6842 94.9134 13.4883 94.4507 12.6091C93.9531 12.7498 93.4445 12.8427 92.9621 13.0473C92.6265 13.1895 92.3289 13.4896 92.0104 13.7089C91.9115 13.777 91.7993 13.8117 91.693 13.8619C91.7997 13.9216 91.9074 13.9781 92.0124 14.0417C93.0375 14.6644 93.713 15.7831 94.3955 16.884C94.4697 17.004 94.4511 17.2605 94.4151 17.4344C94.404 17.4892 94.171 17.5463 94.0798 17.4925C93.0723 16.8982 91.8784 17.0838 90.9166 16.2726C90.3365 15.7836 89.6628 15.4732 89.0951 14.9649C88.3196 14.2706 87.6052 13.4635 86.8637 12.7059C85.9064 11.7279 84.9094 10.8067 84.0064 9.75094C83.5397 9.20499 83.172 8.46782 82.883 7.73249C82.5816 6.96561 82.091 6.55686 81.5682 6.14528C81.3362 5.96259 81.1283 5.71428 80.8803 5.58402C80.6422 5.45961 80.4799 5.12261 80.0877 5.57709C78.792 7.07836 77.7007 8.7694 76.7083 10.6068C75.7108 12.4537 74.8275 14.4312 73.412 15.8558C73.1307 16.1388 72.9478 16.5828 72.7009 16.9305C72.2815 17.5211 71.8761 18.1379 71.4106 18.6621C70.9778 19.1497 70.4971 19.5874 69.9956 19.9447C69.404 20.3662 68.8122 20.8357 68.0761 20.7134C67.7885 20.6657 67.4761 20.8249 67.175 20.8898C67.3434 20.5143 67.5781 20.1607 67.666 19.7582C67.8378 18.9694 68.3121 18.5475 68.7339 18.0439C70.0063 16.525 71.2745 15.0001 72.5418 13.4741C72.5881 13.4187 72.6082 13.3267 72.6405 13.2515C72.5694 13.2119 72.5006 13.147 72.4267 13.1376C72.1755 13.1053 71.9174 13.1235 71.6707 13.0669C70.7543 12.8563 69.9901 13.1848 69.3014 14.0464C69.0262 14.3903 68.6131 14.5612 68.25 14.7713C67.5473 15.1782 66.8444 15.5459 66.2552 16.2517C65.7385 16.8708 65.022 16.959 64.3648 17.0761C63.9687 17.1464 63.6867 17.1578 63.4786 17.7241C63.3279 18.1345 62.9742 18.4382 62.6835 18.7455C62.5723 18.8629 62.3866 18.8721 62.232 18.9026C62.1569 18.9172 62.0755 18.8668 61.9971 18.8458C62.0324 18.7322 62.0439 18.5839 62.107 18.5101C62.8214 17.6754 63.4707 16.7138 64.1984 15.9484C65.2563 14.8359 66.2731 13.5322 67.6782 13.0582C68.0879 12.92 68.4474 12.494 68.8195 12.1783C68.8595 12.1444 68.8527 11.8801 68.8278 11.8694C68.4544 11.7104 68.0786 11.5542 67.6945 11.4438C67.4466 11.3725 67.2227 11.3521 67.1685 11.8696C67.1495 12.0503 66.7841 12.1819 66.5764 12.335C65.8713 12.8544 65.1372 13.2931 64.4996 13.9802C63.8456 14.6843 63.0342 14.9977 62.2267 15.2887C61.9254 15.3975 61.5482 15.4695 61.3581 15.7385C60.3991 17.0956 58.9734 17.6809 58.1177 19.2564C57.7577 19.9191 57.0118 20.3315 56.3815 20.636C55.2688 21.1731 54.3335 22.0983 53.36 22.9076C52.5384 23.5903 51.7458 24.3252 50.8311 24.7457C50.1207 25.0724 49.5324 25.7768 48.7578 25.879C48.479 25.9157 48.201 25.9713 47.922 25.99C47.8888 25.9921 47.8082 25.7462 47.8231 25.73C48.6014 24.8845 49.3908 24.0564 50.1722 23.2153C50.8474 22.4884 51.7564 22.2211 52.2601 21.1074C52.5512 20.4634 53.1223 19.9625 53.7879 19.8668C53.8615 19.8562 53.9726 19.6499 53.974 19.5358C53.9754 19.43 53.8695 19.279 53.7818 19.2288C53.2153 18.9052 52.61 18.6694 52.0813 18.2674C51.8061 18.0582 51.6957 18.1319 51.4482 18.2954C50.6901 18.7963 50.0787 19.5337 49.4585 20.2555C48.5865 21.2707 47.6279 21.8627 46.4445 21.6025C45.8145 21.464 45.2965 21.7887 44.7209 22.1605C43.8788 22.7042 43.1244 23.5926 42.1149 23.6234C41.8313 24.1486 41.6302 23.2199 41.3157 23.5876C41.0812 23.8619 40.7567 24.0004 40.4929 24.239C40.2829 24.429 40.242 24.3763 40.2248 24.0726C40.1775 23.235 40.5626 22.818 41.0849 22.4863C43.078 21.22 45.0529 19.9044 47.1327 18.8896C47.541 18.6906 47.9149 18.3099 48.2581 17.9398C48.9887 17.1523 49.7652 16.4781 50.6089 15.912C51.4391 15.355 52.1184 15.2823 53.0292 15.767C53.9651 16.2648 54.8711 16.8223 55.6862 17.607C56.0383 17.946 56.6638 17.8209 56.9033 17.3475C57.4366 16.2943 58.0622 15.4076 59.0115 14.9929C59.0859 14.9605 59.1475 14.8598 59.2062 14.7796C60.0495 13.6286 61.0613 12.9173 62.2525 12.5586C62.9956 12.3349 63.6291 11.7044 64.249 11.142C64.9856 10.4736 65.9034 10.2335 66.5394 9.32231C66.8932 8.81561 67.4071 9.0265 67.813 9.23121C68.4964 9.57549 69.1392 10.0458 69.8153 10.4161C70.4944 10.788 71.1755 11.1871 71.8892 11.4118C72.3733 11.5643 72.8077 11.704 73.1515 12.1929C73.2713 12.3634 73.4839 12.5445 73.6409 12.5216C73.8617 12.4896 74.0983 12.3172 74.2786 12.1259C75.0169 11.3423 75.7917 10.5752 76.2363 9.45282C76.7471 8.16362 77.5982 7.24724 78.2838 6.15108C78.5256 5.76442 78.8401 5.45417 79.1122 5.09707C79.3602 4.77176 79.623 4.45605 79.8317 4.09126C80.4618 2.98904 81.306 3.27818 82.126 3.37742C82.3607 3.923 82.7902 3.72652 83.1417 3.76231C83.8727 3.83713 84.5089 4.22052 85.1621 4.58557C86.2695 5.20454 87.3031 6.03269 88.5595 6.23173C88.9685 6.29656 89.4338 6.55804 89.8127 6.99632C90.4189 7.69767 91.2339 7.99196 91.9713 8.42946C92.2533 8.59667 92.6262 8.60507 92.8383 8.85503C93.2988 9.39758 93.9266 9.41882 94.3486 9.21907C94.8683 8.97364 95.3192 9.09995 95.7985 9.07794C96.0927 9.06427 96.4273 9.24709 96.673 9.11264C97.0778 8.89101 97.4586 8.41307 97.8998 8.6018C98.7082 8.94753 99.5278 9.32022 100.26 9.86286C101.672 10.9092 103.037 12.0627 104.403 13.2086C105.22 13.8945 106.006 14.6427 106.798 15.3772C107.088 15.6467 107.17 16.275 107.613 16.2694C108.353 16.2601 109.078 16.5891 109.835 16.2572C110.952 15.7674 112.082 15.3289 113.212 14.8914C114.004 14.5846 114.794 14.2389 115.602 14.0486C116.736 13.7811 117.855 14.0418 118.593 15.1867C119.612 16.7685 121.048 17.5647 122.264 18.7667C122.354 18.8561 122.466 18.9134 122.572 18.9736C122.974 19.2012 123.298 19.5279 123.441 20.093C122.962 20.0364 122.456 20.08 122.011 19.8961C121.54 19.7013 121.097 19.3397 120.694 18.9596C120.252 18.543 119.607 18.5124 119.338 17.7418C119.283 17.585 118.987 17.5359 118.795 17.5109C118.072 17.4179 117.301 17.5469 116.762 16.7132C116.723 16.6527 116.604 16.6854 116.525 16.661C116.198 16.5606 116.039 16.7543 116.115 17.1666C116.307 18.2098 116.392 18.354 117.41 19.3699C117.743 19.7028 117.766 19.8784 117.456 20.1193C117.108 20.3892 116.798 20.5769 116.326 20.3085C115.55 19.8658 114.983 19.1833 114.507 18.336C114.266 17.9085 113.973 17.758 113.567 17.7299C112.792 17.6759 112.032 17.6325 111.327 18.2045C111.215 18.2949 111.084 18.3434 110.961 18.4111C111.073 18.5676 111.161 18.8057 111.299 18.8684C113.732 19.9736 115.957 21.5813 118.106 23.3791C118.235 23.4876 118.38 23.567 118.507 23.6793C118.573 23.7379 118.617 23.8392 118.67 23.9213C118.6 23.9702 118.527 24.0633 118.459 24.0608C118.08 24.0459 117.702 24.0075 117.216 23.9686Z" fill="#E1C9A5"/>
<path d="M74.1296 22.229C73.9999 22.1021 73.9077 22.0575 73.8834 21.9765C73.8563 21.8863 73.8575 21.7162 73.9033 21.6613C74.3914 21.08 74.8537 20.4752 75.303 19.8381C75.7272 19.237 76.3721 18.8973 76.9158 18.4341C77.1565 18.229 77.4557 18.0638 77.6103 17.7762C78.3414 16.4144 79.3559 15.5053 80.4178 14.6631C80.5485 14.5596 80.7114 14.5174 80.8635 14.4728C80.9419 14.4498 81.0293 14.4843 81.1125 14.4927C81.0971 14.6079 81.0958 14.7295 81.0636 14.8368C80.8392 15.584 80.2875 15.9378 79.8884 16.4764C79.8254 16.5614 79.807 16.8079 79.8561 16.8978C79.91 16.9966 80.0971 17.0828 80.1717 17.0327C80.7734 16.6292 81.3762 16.2871 82.0528 16.1183C82.4055 16.0306 82.7143 15.6017 83.1296 15.7345C82.8737 16.0629 82.5928 16.3656 82.3665 16.7251C81.8979 17.4695 81.1976 17.6794 80.5846 18.046C79.7154 18.5655 78.7481 18.8064 78.0388 19.7432C77.1228 19.8927 76.481 20.9933 75.4956 21.0016C75.1971 21.0041 74.8902 21.5115 74.5887 21.7906C74.4275 21.94 74.2694 22.0953 74.1296 22.229Z" fill="#E1C9A5"/>
<path d="M59.9033 29.0265C59.7257 28.9047 59.4896 28.8315 59.4802 28.7182C59.4598 28.4786 59.4937 28.1225 59.6176 27.9818C60.3049 27.2014 60.929 26.3031 61.7915 25.8224C62.5437 25.4034 63.185 24.7579 63.8461 24.1427C64.5374 23.4993 65.2671 22.9248 65.9915 22.3451C66.1033 22.2556 66.2769 22.2995 66.4221 22.2815C66.4321 22.4882 66.5032 22.7322 66.4413 22.8948C66.2053 23.5129 65.9158 24.1366 65.4329 24.4489C64.4772 25.0672 63.8037 26.1384 62.9569 26.9188C62.2071 27.6099 61.5001 28.4264 60.5676 28.7142C60.3421 28.7837 60.1277 28.9192 59.9033 29.0265Z" fill="#E1C9A5"/>
<path d="M39.5729 30.9379C39.4476 30.9278 39.3062 30.9593 39.2022 30.8943C39.1205 30.8435 39.0618 30.6811 39.0383 30.5525C39.025 30.4805 39.0865 30.3303 39.1431 30.2946C40.0989 29.688 41.063 29.1037 42.0173 28.4927C42.5246 28.1681 43.01 27.8379 43.6101 27.951C44.075 28.0388 44.4267 27.6316 44.8002 27.301C45.3127 26.8471 45.7874 27.1705 45.795 27.944C45.7967 28.1108 45.6193 28.4383 45.6051 28.4312C45.0957 28.1816 44.8835 28.8741 44.5092 29.0228C44.2475 29.1266 43.9719 29.2997 43.7166 29.2724C43.1131 29.2081 42.6606 29.5663 42.141 29.9056C41.3433 30.4258 40.456 30.7064 39.607 31.0887C39.5957 31.0384 39.5843 30.9882 39.5729 30.9379Z" fill="#E1C9A5"/>
<path d="M123.689 29.4305C123.498 29.2927 123.153 29.1362 122.905 28.8419C122.579 28.456 122.227 28.189 121.829 27.9393C120.883 27.3444 120.681 27.0758 120.027 25.9489C119.928 25.7786 119.94 25.4991 119.9 25.2701C120.139 25.1977 120.382 25.0564 120.614 25.0755C120.787 25.0897 120.957 25.2928 121.109 25.4437C121.911 26.237 122.886 26.6817 123.664 27.5116C123.949 27.8153 124.163 28.2312 124.398 28.6085C124.486 28.7494 124.539 28.9263 124.608 29.0869C124.433 29.2118 124.262 29.3516 124.08 29.4546C124.011 29.4937 123.915 29.4487 123.689 29.4305Z" fill="#E1C9A5"/>
<path d="M38.1901 25.3966C38.0664 25.6217 38.0195 25.8048 37.9309 25.8534C36.7385 26.5076 35.5492 27.1756 34.3388 27.766C33.9018 27.9793 33.412 28.037 32.9436 28.0761C32.7872 28.0892 32.609 27.8413 32.4742 27.6686C32.4512 27.639 32.5755 27.3558 32.6699 27.2438C33.125 26.7033 33.5823 26.2348 34.264 26.1951C34.6677 26.1716 35.1373 25.9305 35.4522 25.5906C35.9993 25.0001 36.6829 25.2614 37.2633 24.8827C37.4505 24.7604 37.844 25.191 38.1901 25.3966Z" fill="#E1C9A5"/>
<path d="M99.0989 22.8482C98.726 22.9078 98.4395 22.6907 98.2027 22.2654C97.4952 20.9948 96.4116 20.278 95.515 19.2849C95.3711 19.1257 95.1716 19.0494 95.0317 18.8864C94.9587 18.8013 94.9136 18.5938 94.9414 18.4723C94.9637 18.375 95.1193 18.2578 95.2095 18.2631C95.8334 18.2981 96.5001 18.2578 96.714 19.282C97.3715 19.6357 97.6111 20.6481 98.4161 20.881C98.892 21.0185 99.2529 21.7836 99.648 22.2895C99.7156 22.3759 99.7451 22.6133 99.7004 22.7165C99.6588 22.8128 99.497 22.8382 99.3844 22.8658C99.3043 22.8856 99.2184 22.8576 99.0989 22.8482Z" fill="#E1C9A5"/>
<path d="M90.1698 21.2471C90.1178 21.2955 90.031 21.4436 89.9451 21.4451C89.4766 21.4541 89.1284 21.1559 88.8138 20.7276C88.4876 20.2837 88.0958 19.9213 87.7697 19.4772C87.5289 19.1495 87.2208 18.8566 87.3049 18.2584C87.3314 18.0704 87.106 17.8371 87.0067 17.6165C86.7619 17.0724 86.7149 16.5586 86.8074 16.6092C87.0166 16.7239 87.1994 16.9234 87.3821 17.1063C87.8748 17.5995 88.422 18.0304 88.8361 18.6187C89.3453 19.3423 89.7421 20.1995 90.1836 21.0028C90.202 21.0361 90.1792 21.1084 90.1698 21.2471Z" fill="#E1C9A5"/>
<path d="M110.838 23.6871C111.142 23.9072 111.499 24.1082 111.804 24.3991C112.341 24.9098 112.852 25.4666 113.358 26.0279C113.426 26.1037 113.454 26.3546 113.408 26.4554C113.364 26.552 113.166 26.64 113.092 26.5922C112.158 25.9884 111.055 25.7231 110.439 24.4762C110.359 24.3144 110.342 24.0995 110.296 23.9091C110.445 23.8479 110.595 23.7866 110.838 23.6871Z" fill="#E1C9A5"/>
<path d="M127.047 23.5626C126.712 23.3043 126.363 23.0873 126.07 22.7808C125.964 22.6699 125.912 22.2841 125.981 22.1332C126.067 21.946 126.222 21.5641 126.517 22.0013C126.731 22.3173 127.118 22.4246 127.398 22.6795C127.508 22.7801 127.537 23.0283 127.603 23.2092C127.442 23.3112 127.282 23.4133 127.047 23.5626Z" fill="#E1C9A5"/>
<path d="M99.2312 17.9425C99.3201 17.8163 99.4168 17.6045 99.466 17.6201C99.998 17.7891 100.563 17.8947 100.944 18.4683C101.003 18.5564 100.983 18.764 100.956 18.904C100.945 18.9612 100.804 19.0415 100.75 19.0164C100.313 18.8098 99.8781 18.5943 99.4544 18.3481C99.3619 18.2944 99.3179 18.107 99.2312 17.9425Z" fill="#E1C9A5"/>
<path d="M119.008 20.8161C119.132 20.8258 119.262 20.8089 119.378 20.851C119.676 20.9588 119.913 21.2251 119.825 21.6302C119.73 22.0658 119.277 21.9002 119.214 21.7923C118.936 21.315 118.544 21.5014 118.205 21.3964C118.155 21.3807 118.093 21.2185 118.107 21.1435C118.131 21.007 118.205 20.7806 118.266 20.7748C118.512 20.7509 118.761 20.7962 119.008 20.8161Z" fill="#E1C9A5"/>
<path d="M77.5614 25.0147C77.7231 25.1059 77.8275 25.1643 77.9317 25.2232C77.8117 25.2854 77.693 25.3867 77.571 25.3981C77.4645 25.408 77.3543 25.3168 77.2458 25.2705C77.354 25.1826 77.4623 25.095 77.5614 25.0147Z" fill="#E1C9A5"/>
<path d="M60.4956 20.3369C60.2455 20.4614 60.1047 20.5555 59.9565 20.5927C59.9022 20.6062 59.8304 20.4839 59.7665 20.4235C59.8613 20.3001 59.9474 20.1601 60.0559 20.064C60.0867 20.0371 60.1837 20.1381 60.4956 20.3369Z" fill="#E1C9A5"/>
</svg>
