<svg width="165" height="63" viewBox="0 0 165 63" fill="none" xmlns="http://www.w3.org/2000/svg">
<path d="M9.64 48.3544V30.1624H21.64V31.2904H11.968V38.2984H20.248V39.4264H11.968V47.2264H21.64V48.3544H9.64ZM31.3358 48.3544H26.2478V30.1624H31.2398C32.8238 30.1624 34.2718 30.3384 35.5838 30.6904C36.9118 31.0424 38.0878 31.5704 39.1118 32.2744C40.1518 32.9784 40.9598 33.9144 41.5358 35.0824C42.1278 36.2504 42.4238 37.6024 42.4238 39.1384C42.4238 40.6744 42.1278 42.0424 41.5358 43.2424C40.9598 44.4424 40.1598 45.4104 39.1358 46.1464C38.1118 46.8664 36.9358 47.4184 35.6078 47.8024C34.2958 48.1704 32.8718 48.3544 31.3358 48.3544ZM28.5758 47.2984H31.2398C33.8798 47.2984 35.9598 46.6584 37.4798 45.3784C39.0158 44.0824 39.7838 42.0344 39.7838 39.2344C39.7838 36.4344 39.0158 34.4024 37.4798 33.1384C35.9598 31.8584 33.8798 31.2184 31.2398 31.2184H28.5758V47.2984ZM47.0275 48.3544V30.1624H59.0275V31.2904H49.3555V38.2984H57.6355V39.4264H49.3555V47.2264H59.0275V48.3544H47.0275ZM63.6353 48.3544V30.1624H65.9633V47.2264H75.4913V48.3544H63.6353ZM81.2723 48.4984L75.2483 30.1624H77.6963L82.5683 45.2584L87.8243 30.1624H89.0723L94.4243 45.1384L99.3443 30.1624H100.712L94.6883 48.4984H93.2483L87.9203 33.7624L82.7123 48.4984H81.2723ZM104.492 48.3544V30.1624H116.492V31.2904H106.82V38.2984H115.1V39.4264H106.82V47.2264H116.492V48.3544H104.492ZM121.099 48.3544V30.1624H123.427V48.3544H121.099ZM134.261 48.6424C132.133 48.6424 130.373 48.3144 128.981 47.6584L128.501 42.6424H129.221L130.541 46.5304C130.797 47.2664 132.029 47.6344 134.237 47.6344C135.533 47.6344 136.573 47.3384 137.357 46.7464C138.141 46.1384 138.533 45.3064 138.533 44.2504C138.533 43.1944 138.197 42.3784 137.525 41.8024C136.853 41.2104 135.781 40.6744 134.309 40.1944L133.013 39.7624C129.973 38.7384 128.453 36.9864 128.453 34.5064C128.453 33.0664 129.077 31.9224 130.325 31.0744C131.589 30.2104 133.101 29.7784 134.861 29.7784C136.685 29.7784 138.117 30.0424 139.157 30.5704L139.805 35.2504H139.085L137.717 31.8184C137.445 31.1304 136.445 30.7864 134.717 30.7864C133.565 30.7864 132.597 31.0504 131.813 31.5784C131.045 32.0904 130.661 32.8104 130.661 33.7384C130.661 34.6024 130.901 35.3224 131.381 35.8984C131.861 36.4744 132.629 36.9384 133.685 37.2904L134.981 37.7224C136.885 38.3464 138.325 39.0824 139.301 39.9304C140.293 40.7784 140.789 41.9464 140.789 43.4344C140.789 44.9544 140.157 46.2024 138.893 47.1784C137.629 48.1544 136.085 48.6424 134.261 48.6424ZM150.306 48.6424C148.178 48.6424 146.418 48.3144 145.026 47.6584L144.546 42.6424H145.266L146.586 46.5304C146.842 47.2664 148.074 47.6344 150.282 47.6344C151.578 47.6344 152.618 47.3384 153.402 46.7464C154.186 46.1384 154.578 45.3064 154.578 44.2504C154.578 43.1944 154.242 42.3784 153.57 41.8024C152.898 41.2104 151.826 40.6744 150.354 40.1944L149.058 39.7624C146.018 38.7384 144.498 36.9864 144.498 34.5064C144.498 33.0664 145.122 31.9224 146.37 31.0744C147.634 30.2104 149.146 29.7784 150.906 29.7784C152.73 29.7784 154.162 30.0424 155.202 30.5704L155.85 35.2504H155.13L153.762 31.8184C153.49 31.1304 152.49 30.7864 150.762 30.7864C149.61 30.7864 148.642 31.0504 147.858 31.5784C147.09 32.0904 146.706 32.8104 146.706 33.7384C146.706 34.6024 146.946 35.3224 147.426 35.8984C147.906 36.4744 148.674 36.9384 149.73 37.2904L151.026 37.7224C152.93 38.3464 154.37 39.0824 155.346 39.9304C156.338 40.7784 156.834 41.9464 156.834 43.4344C156.834 44.9544 156.202 46.2024 154.938 47.1784C153.674 48.1544 152.13 48.6424 150.306 48.6424Z" fill="white"/>
<path opacity="0.8" d="M1.6 60.3544H0.96V55.3144H4.06V55.8944H1.6V60.3544ZM5.5518 59.6644C5.11846 59.1444 4.9018 58.5344 4.9018 57.8344C4.9018 57.1344 5.11846 56.5278 5.5518 56.0144C5.98513 55.4944 6.55513 55.2344 7.2618 55.2344C7.96846 55.2344 8.53846 55.4944 8.9718 56.0144C9.40513 56.5278 9.6218 57.1344 9.6218 57.8344C9.6218 58.5344 9.40513 59.1444 8.9718 59.6644C8.53846 60.1778 7.96846 60.4344 7.2618 60.4344C6.55513 60.4344 5.98513 60.1778 5.5518 59.6644ZM6.0118 56.4244C5.70513 56.8244 5.5518 57.2944 5.5518 57.8344C5.5518 58.3744 5.70513 58.8478 6.0118 59.2544C6.31846 59.6544 6.73513 59.8544 7.2618 59.8544C7.78846 59.8544 8.20513 59.6544 8.5118 59.2544C8.81846 58.8478 8.9718 58.3744 8.9718 57.8344C8.9718 57.2944 8.81846 56.8244 8.5118 56.4244C8.20513 56.0178 7.78846 55.8144 7.2618 55.8144C6.73513 55.8144 6.31846 56.0178 6.0118 56.4244ZM11.5816 59.6744C11.1883 59.1611 10.9916 58.5478 10.9916 57.8344C10.9916 57.1211 11.1883 56.5111 11.5816 56.0044C11.975 55.4911 12.5216 55.2344 13.2216 55.2344C14.2283 55.2344 14.905 55.6978 15.2516 56.6244L14.6916 56.8444C14.4116 56.1578 13.9216 55.8144 13.2216 55.8144C12.7083 55.8144 12.315 56.0078 12.0416 56.3944C11.775 56.7744 11.6416 57.2544 11.6416 57.8344C11.6416 58.4144 11.775 58.8978 12.0416 59.2844C12.315 59.6644 12.7083 59.8544 13.2216 59.8544C13.9216 59.8544 14.4116 59.5111 14.6916 58.8244L15.2516 59.0444C14.905 59.9711 14.2283 60.4344 13.2216 60.4344C12.5216 60.4344 11.975 60.1811 11.5816 59.6744ZM17.756 55.8944H16.336V55.3144H19.796V55.8944H18.376V60.3544H17.756V55.8944ZM21.8583 60.3544H21.1983V55.3144H21.8183V59.3744L24.4783 55.3144H25.1383V60.3544H24.5183V56.2944L21.8583 60.3544ZM27.664 60.3544H27.044V55.3144H27.664V57.3844H30.124V55.3144H30.744V60.3544H30.124V57.9644H27.664V60.3544ZM32.8753 59.7044C32.462 59.2111 32.2553 58.5878 32.2553 57.8344C32.2553 57.0811 32.462 56.4611 32.8753 55.9744C33.2886 55.4811 33.8286 55.2344 34.4953 55.2344C35.1486 55.2344 35.6786 55.4478 36.0853 55.8744C36.4986 56.3011 36.7053 56.8611 36.7053 57.5544V57.8344H32.9053C32.9053 58.4344 33.0453 58.9211 33.3253 59.2944C33.612 59.6678 34.002 59.8544 34.4953 59.8544C34.8753 59.8544 35.182 59.7711 35.4153 59.6044C35.6486 59.4378 35.8586 59.1611 36.0453 58.7744L36.5953 59.0444C36.342 59.5444 36.0486 59.9011 35.7153 60.1144C35.382 60.3278 34.9753 60.4344 34.4953 60.4344C33.8286 60.4344 33.2886 60.1911 32.8753 59.7044ZM32.9453 57.2544H36.0653C36.0053 56.8011 35.842 56.4478 35.5753 56.1944C35.3086 55.9411 34.9486 55.8144 34.4953 55.8144C34.0953 55.8144 33.7553 55.9478 33.4753 56.2144C33.202 56.4811 33.0253 56.8278 32.9453 57.2544ZM38.3629 58.0144V55.3144H38.9829V57.9544C38.9829 58.2611 39.0662 58.4911 39.2329 58.6444C39.3996 58.7978 39.6196 58.8744 39.8929 58.8744C40.4862 58.8744 41.0162 58.5278 41.4829 57.8344V55.3144H42.1029V60.3544H41.4829V58.6244C41.0229 59.1644 40.4562 59.4344 39.7829 59.4344C39.3496 59.4344 39.0029 59.3078 38.7429 59.0544C38.4896 58.7944 38.3629 58.4478 38.3629 58.0144ZM44.7714 60.3544H44.1514V55.3144H44.7714V57.3844H47.2314V55.3144H47.8514V60.3544H47.2314V57.9644H44.7714V60.3544ZM51.453 60.3544H49.753V55.3144H50.373V57.2344H51.453C51.9996 57.2344 52.4163 57.3744 52.703 57.6544C52.9896 57.9278 53.133 58.3078 53.133 58.7944C53.133 59.2811 52.9896 59.6644 52.703 59.9444C52.4163 60.2178 51.9996 60.3544 51.453 60.3544ZM50.373 57.8144V59.7744H51.183C51.623 59.7744 51.943 59.6978 52.143 59.5444C52.343 59.3844 52.443 59.1344 52.443 58.7944C52.443 58.4544 52.343 58.2078 52.143 58.0544C51.943 57.8944 51.623 57.8144 51.183 57.8144H50.373ZM54.783 60.3544H54.163V55.3144H54.783V60.3544ZM57.2645 60.3544H56.6045V55.3144H57.2245V59.3744L59.8845 55.3144H60.5445V60.3544H59.9245V56.2944L57.2645 60.3544ZM57.5245 53.3544H58.0345C58.0345 53.5344 58.0812 53.6778 58.1745 53.7844C58.2679 53.8911 58.4012 53.9444 58.5745 53.9444C58.9345 53.9444 59.1145 53.7478 59.1145 53.3544H59.6245C59.6245 53.6811 59.5312 53.9444 59.3445 54.1444C59.1645 54.3444 58.9079 54.4444 58.5745 54.4444C58.2545 54.4444 57.9979 54.3444 57.8045 54.1444C57.6179 53.9444 57.5245 53.6811 57.5245 53.3544ZM66.1034 60.3544H65.4834V55.3144H66.1034V57.5444L68.2134 55.3144H68.9934L66.8134 57.6244L69.1734 60.3544H68.3834L66.1034 57.7044V60.3544ZM70.8077 59.6644C70.3743 59.1444 70.1577 58.5344 70.1577 57.8344C70.1577 57.1344 70.3743 56.5278 70.8077 56.0144C71.241 55.4944 71.811 55.2344 72.5177 55.2344C73.2243 55.2344 73.7943 55.4944 74.2277 56.0144C74.661 56.5278 74.8777 57.1344 74.8777 57.8344C74.8777 58.5344 74.661 59.1444 74.2277 59.6644C73.7943 60.1778 73.2243 60.4344 72.5177 60.4344C71.811 60.4344 71.241 60.1778 70.8077 59.6644ZM71.2677 56.4244C70.961 56.8244 70.8077 57.2944 70.8077 57.8344C70.8077 58.3744 70.961 58.8478 71.2677 59.2544C71.5743 59.6544 71.991 59.8544 72.5177 59.8544C73.0443 59.8544 73.461 59.6544 73.7677 59.2544C74.0743 58.8478 74.2277 58.3744 74.2277 57.8344C74.2277 57.2944 74.0743 56.8244 73.7677 56.4244C73.461 56.0178 73.0443 55.8144 72.5177 55.8144C71.991 55.8144 71.5743 56.0178 71.2677 56.4244ZM77.0429 60.3544H76.4229V55.3144H77.2629L78.6929 58.8744L80.1229 55.3144H80.9629V60.3544H80.3429V56.2944L78.9129 59.8944H78.4729L77.0429 56.2944V60.3544ZM83.5038 60.3544H82.8838V55.3144H86.5938V60.3544H85.9738V55.8944H83.5038V60.3544ZM87.7803 60.3544V59.7744C88.127 59.7744 88.3703 59.7044 88.5103 59.5644C88.657 59.4178 88.7436 59.1778 88.7703 58.8444L89.1203 55.3144H92.3203V60.3544H91.7003V55.8944H89.7003L89.3803 58.9944C89.327 59.4678 89.177 59.8144 88.9303 60.0344C88.6903 60.2478 88.307 60.3544 87.7803 60.3544ZM94.4827 59.7044C94.0694 59.2111 93.8627 58.5878 93.8627 57.8344C93.8627 57.0811 94.0694 56.4611 94.4827 55.9744C94.8961 55.4811 95.4361 55.2344 96.1027 55.2344C96.7561 55.2344 97.2861 55.4478 97.6927 55.8744C98.1061 56.3011 98.3127 56.8611 98.3127 57.5544V57.8344H94.5127C94.5127 58.4344 94.6527 58.9211 94.9327 59.2944C95.2194 59.6678 95.6094 59.8544 96.1027 59.8544C96.4827 59.8544 96.7894 59.7711 97.0227 59.6044C97.2561 59.4378 97.4661 59.1611 97.6527 58.7744L98.2027 59.0444C97.9494 59.5444 97.6561 59.9011 97.3227 60.1144C96.9894 60.3278 96.5827 60.4344 96.1027 60.4344C95.4361 60.4344 94.8961 60.1911 94.4827 59.7044ZM94.5527 57.2544H97.6727C97.6127 56.8011 97.4494 56.4478 97.1827 56.1944C96.9161 55.9411 96.5561 55.8144 96.1027 55.8144C95.7027 55.8144 95.3627 55.9478 95.0827 56.2144C94.8094 56.4811 94.6327 56.8278 94.5527 57.2544ZM100.426 60.3544H99.8057V55.3144H100.426V57.5444L102.536 55.3144H103.316L101.136 57.6244L103.496 60.3544H102.706L100.426 57.7044V60.3544ZM105.07 59.6744C104.677 59.1611 104.48 58.5478 104.48 57.8344C104.48 57.1211 104.677 56.5111 105.07 56.0044C105.463 55.4911 106.01 55.2344 106.71 55.2344C107.717 55.2344 108.393 55.6978 108.74 56.6244L108.18 56.8444C107.9 56.1578 107.41 55.8144 106.71 55.8144C106.197 55.8144 105.803 56.0078 105.53 56.3944C105.263 56.7744 105.13 57.2544 105.13 57.8344C105.13 58.4144 105.263 58.8978 105.53 59.2844C105.803 59.6644 106.197 59.8544 106.71 59.8544C107.41 59.8544 107.9 59.5111 108.18 58.8244L108.74 59.0444C108.393 59.9711 107.717 60.4344 106.71 60.4344C106.01 60.4344 105.463 60.1811 105.07 59.6744ZM115.053 60.3544H113.183V55.3144H115.073C115.499 55.3144 115.839 55.4244 116.093 55.6444C116.346 55.8644 116.473 56.1711 116.473 56.5644C116.473 57.0178 116.283 57.3611 115.903 57.5944C116.416 57.8544 116.673 58.2611 116.673 58.8144C116.673 59.2678 116.526 59.6378 116.233 59.9244C115.939 60.2111 115.546 60.3544 115.053 60.3544ZM113.803 57.9544V59.7744H115.023C115.709 59.7744 116.053 59.4711 116.053 58.8644C116.053 58.2578 115.709 57.9544 115.023 57.9544H113.803ZM113.803 55.8944V57.3744H115.063C115.589 57.3744 115.853 57.1278 115.853 56.6344C115.853 56.1411 115.589 55.8944 115.063 55.8944H113.803ZM121.032 60.3544H120.352L122.882 53.3544H123.462L125.992 60.3544H125.312L124.612 58.3644H121.732L121.032 60.3544ZM123.172 54.2544L121.942 57.7444H124.402L123.172 54.2544ZM126.902 57.2544C126.902 54.6544 127.755 53.3544 129.462 53.3544H129.832C130.105 53.3544 130.292 53.3211 130.392 53.2544C130.498 53.1878 130.582 53.0644 130.642 52.8844H131.132C131.085 53.5844 130.708 53.9344 130.002 53.9344H129.512C128.385 53.9344 127.752 54.6411 127.612 56.0544C128.058 55.5078 128.682 55.2344 129.482 55.2344C130.135 55.2344 130.658 55.4844 131.052 55.9844C131.452 56.4844 131.652 57.1011 131.652 57.8344C131.652 58.5678 131.435 59.1844 131.002 59.6844C130.568 60.1844 129.995 60.4344 129.282 60.4344C128.542 60.4344 127.958 60.1644 127.532 59.6244C127.112 59.0778 126.902 58.2878 126.902 57.2544ZM128.022 56.4144C127.715 56.8144 127.562 57.2878 127.562 57.8344C127.562 58.3811 127.715 58.8544 128.022 59.2544C128.328 59.6544 128.748 59.8544 129.282 59.8544C129.815 59.8544 130.235 59.6544 130.542 59.2544C130.848 58.8544 131.002 58.3811 131.002 57.8344C131.002 57.2878 130.848 56.8144 130.542 56.4144C130.235 56.0144 129.815 55.8144 129.282 55.8144C128.748 55.8144 128.328 56.0144 128.022 56.4144ZM133.031 58.9744L133.641 58.9044C133.688 59.1778 133.794 59.4044 133.961 59.5844C134.134 59.7644 134.374 59.8544 134.681 59.8544C134.988 59.8544 135.231 59.7544 135.411 59.5544C135.598 59.3478 135.691 59.0911 135.691 58.7844C135.691 58.4778 135.608 58.2244 135.441 58.0244C135.274 57.8178 135.041 57.7144 134.741 57.7144C134.614 57.7144 134.481 57.7411 134.341 57.7944L134.011 57.3744L135.071 55.8944H133.261V55.3144H136.071V55.4644L134.751 57.2644C134.844 57.2444 134.931 57.2344 135.011 57.2344C135.391 57.2344 135.708 57.3778 135.961 57.6644C136.214 57.9511 136.341 58.3244 136.341 58.7844C136.341 59.2378 136.178 59.6278 135.851 59.9544C135.531 60.2744 135.141 60.4344 134.681 60.4344C134.241 60.4344 133.864 60.3011 133.551 60.0344C133.244 59.7611 133.071 59.4078 133.031 58.9744ZM137.666 58.9044C137.666 58.3578 137.869 57.9478 138.276 57.6744C138.689 57.3944 139.259 57.2544 139.986 57.2544H140.826V57.0344C140.826 56.2211 140.439 55.8144 139.666 55.8144C139.052 55.8144 138.652 56.1278 138.466 56.7544L137.866 56.6144C137.932 56.1944 138.132 55.8611 138.466 55.6144C138.806 55.3611 139.206 55.2344 139.666 55.2344C140.179 55.2344 140.602 55.3944 140.936 55.7144C141.276 56.0278 141.446 56.4611 141.446 57.0144V60.3544H140.976L140.826 59.5744C140.499 60.1478 139.969 60.4344 139.236 60.4344C138.776 60.4344 138.399 60.3111 138.106 60.0644C137.812 59.8111 137.666 59.4244 137.666 58.9044ZM138.316 58.9044C138.316 59.2111 138.402 59.4478 138.576 59.6144C138.749 59.7744 138.989 59.8544 139.296 59.8544C139.682 59.8544 140.032 59.7044 140.346 59.4044C140.666 59.1044 140.826 58.6444 140.826 58.0244V57.8344H140.006C138.879 57.8344 138.316 58.1911 138.316 58.9044ZM143.76 60.3544H143.14V55.3144H143.76V57.5444L145.87 55.3144H146.65L144.47 57.6244L146.83 60.3544H146.04L143.76 57.7044V60.3544ZM148.464 59.6644C148.031 59.1444 147.814 58.5344 147.814 57.8344C147.814 57.1344 148.031 56.5278 148.464 56.0144C148.897 55.4944 149.467 55.2344 150.174 55.2344C150.881 55.2344 151.451 55.4944 151.884 56.0144C152.317 56.5278 152.534 57.1344 152.534 57.8344C152.534 58.5344 152.317 59.1444 151.884 59.6644C151.451 60.1778 150.881 60.4344 150.174 60.4344C149.467 60.4344 148.897 60.1778 148.464 59.6644ZM148.924 56.4244C148.617 56.8244 148.464 57.2944 148.464 57.8344C148.464 58.3744 148.617 58.8478 148.924 59.2544C149.231 59.6544 149.647 59.8544 150.174 59.8544C150.701 59.8544 151.117 59.6544 151.424 59.2544C151.731 58.8478 151.884 58.3744 151.884 57.8344C151.884 57.2944 151.731 56.8244 151.424 56.4244C151.117 56.0178 150.701 55.8144 150.174 55.8144C149.647 55.8144 149.231 56.0178 148.924 56.4244ZM155.871 60.3544H154.001V55.3144H155.891C156.318 55.3144 156.658 55.4244 156.911 55.6444C157.164 55.8644 157.291 56.1711 157.291 56.5644C157.291 57.0178 157.101 57.3611 156.721 57.5944C157.234 57.8544 157.491 58.2611 157.491 58.8144C157.491 59.2678 157.344 59.6378 157.051 59.9244C156.758 60.2111 156.364 60.3544 155.871 60.3544ZM154.621 57.9544V59.7744H155.841C156.528 59.7744 156.871 59.4711 156.871 58.8644C156.871 58.2578 156.528 57.9544 155.841 57.9544H154.621ZM154.621 55.8944V57.3744H155.881C156.408 57.3744 156.671 57.1278 156.671 56.6344C156.671 56.1411 156.408 55.8944 155.881 55.8944H154.621ZM159.433 59.6644C158.999 59.1444 158.783 58.5344 158.783 57.8344C158.783 57.1344 158.999 56.5278 159.433 56.0144C159.866 55.4944 160.436 55.2344 161.143 55.2344C161.849 55.2344 162.419 55.4944 162.853 56.0144C163.286 56.5278 163.503 57.1344 163.503 57.8344C163.503 58.5344 163.286 59.1444 162.853 59.6644C162.419 60.1778 161.849 60.4344 161.143 60.4344C160.436 60.4344 159.866 60.1778 159.433 59.6644ZM159.893 56.4244C159.586 56.8244 159.433 57.2944 159.433 57.8344C159.433 58.3744 159.586 58.8478 159.893 59.2544C160.199 59.6544 160.616 59.8544 161.143 59.8544C161.669 59.8544 162.086 59.6544 162.393 59.2544C162.699 58.8478 162.853 58.3744 162.853 57.8344C162.853 57.2944 162.699 56.8244 162.393 56.4244C162.086 56.0178 161.669 55.8144 161.143 55.8144C160.616 55.8144 160.199 56.0178 159.893 56.4244Z" fill="white"/>
<path d="M117.458 17.3916C116.221 17.5737 115.059 16.795 113.913 16.2057C113.199 15.8385 112.314 15.9208 111.751 15.1369C110.979 15.1198 110.302 14.6391 109.592 14.3865C108.332 13.9388 107.094 13.3496 106.005 12.3298C104.302 10.7358 102.316 9.66151 100.405 8.47139C99.5084 7.91254 98.7111 7.10149 97.6911 6.82387C97.4647 6.76243 97.2577 6.58968 97.0311 6.54284C96.6514 6.46452 96.4679 6.53316 96.8044 7.02146C96.906 7.16899 96.8049 7.50938 96.8071 7.7614C96.8179 9.01448 97.2514 9.69867 98.3306 10.2057C98.4747 10.2734 98.5895 10.4817 98.729 10.4995C99.0257 10.5368 99.1203 10.7655 98.9888 10.9808C98.8619 11.1886 98.5944 11.2735 98.3885 11.4125C98.0985 10.7875 97.4909 11.2286 97.0573 10.8234C96.6993 10.489 96.3357 10.1401 96.0819 9.73243C95.5709 8.91133 94.6638 8.77214 94.1581 7.98479C93.6681 8.13687 93.1647 8.24553 92.693 8.45564C92.3649 8.60166 92.0825 8.89122 91.7752 9.1074C91.6798 9.17453 91.5695 9.21151 91.4658 9.26252C91.5754 9.31258 91.6857 9.35961 91.7938 9.41328C92.8484 9.93912 93.5785 10.937 94.3147 11.9181C94.3947 12.0251 94.3889 12.2617 94.3616 12.4233C94.3531 12.4741 94.1233 12.5373 94.0295 12.4919C92.9938 11.9915 91.8106 12.2166 90.8098 11.5146C90.2062 11.0913 89.5179 10.8366 88.9257 10.3952C88.1168 9.79216 87.3633 9.08256 86.5852 8.4198C85.5806 7.56419 84.5392 6.76262 83.5851 5.83305C83.0919 5.35233 82.6881 4.69128 82.363 4.02833C82.024 3.33694 81.5138 2.98347 80.9713 2.62886C80.7305 2.47147 80.5105 2.25264 80.2563 2.14417C80.0124 2.04063 79.8336 1.73816 79.4644 2.17394C78.2446 3.61342 77.2384 5.21808 76.3383 6.95282C75.4335 8.69648 74.6492 10.555 73.306 11.9295C73.0391 12.2026 72.8784 12.6192 72.6491 12.9501C72.2594 13.5123 71.8851 14.0979 71.446 14.6012C71.0379 15.0692 70.5795 15.4936 70.0964 15.845C69.5264 16.2595 68.9586 16.7182 68.2173 16.6393C67.9276 16.6086 67.6235 16.7692 67.3261 16.8426C67.4756 16.4897 67.6926 16.1539 67.7603 15.7797C67.8929 15.0466 68.3457 14.637 68.7421 14.1548C69.9376 12.7001 71.1287 11.2402 72.3189 9.77926C72.3624 9.72616 72.3779 9.64065 72.4065 9.5701C72.3335 9.53692 72.2616 9.4804 72.1873 9.47509C71.9348 9.45689 71.6779 9.48534 71.4287 9.44457C70.503 9.29267 69.756 9.62964 69.1108 10.4532C68.853 10.782 68.4489 10.958 68.0967 11.1677C67.4149 11.5739 66.7311 11.9441 66.1776 12.6199C65.6922 13.2127 64.981 13.3265 64.3303 13.4642C63.9383 13.5468 63.6572 13.5702 63.4773 14.1004C63.3472 14.4846 63.0089 14.78 62.7338 15.0758C62.6286 15.1889 62.4435 15.2057 62.2907 15.2408C62.2164 15.2577 62.1326 15.215 62.0532 15.1993C62.0829 15.0933 62.087 14.9564 62.1464 14.8856C62.8186 14.0856 63.4194 13.1718 64.1083 12.4348C65.1099 11.3636 66.0608 10.1185 67.4407 9.61865C67.843 9.47282 68.181 9.06474 68.537 8.75753C68.5752 8.72454 68.5554 8.48181 68.53 8.47309C68.1492 8.34395 67.7661 8.21746 67.377 8.13346C67.1259 8.07922 66.9013 8.07069 66.8727 8.54894C66.8627 8.71601 66.5043 8.85367 66.3045 9.00386C65.6259 9.51359 64.9145 9.9505 64.3116 10.6114C63.6934 11.2885 62.8984 11.6137 62.1064 11.9181C61.8108 12.0319 61.4376 12.1153 61.2611 12.3713C60.3705 13.6629 58.9756 14.2661 58.1989 15.7538C57.8723 16.3795 57.1477 16.7928 56.5332 17.1015C55.4485 17.6461 54.5602 18.5394 53.628 19.3279C52.8412 19.9931 52.0859 20.705 51.1932 21.1334C50.4999 21.4662 49.9472 22.1407 49.1786 22.27C48.902 22.3165 48.627 22.3802 48.3493 22.4102C48.3162 22.4136 48.2235 22.1912 48.2377 22.1756C48.9731 21.3627 49.7205 20.5653 50.4593 19.7563C51.0977 19.0571 51.9923 18.7698 52.4402 17.7229C52.6991 17.1174 53.2446 16.6308 53.9046 16.5125C53.9777 16.4994 54.0785 16.3046 54.0742 16.1996C54.0704 16.1023 53.957 15.9682 53.867 15.9261C53.2851 15.6544 52.6689 15.4651 52.121 15.1196C51.8358 14.9399 51.7291 15.0127 51.49 15.1743C50.7577 15.6694 50.1835 16.3754 49.5999 17.0673C48.7793 18.0405 47.8512 18.6286 46.6562 18.4433C46.0202 18.3447 45.5189 18.6669 44.9624 19.0349C44.1483 19.5733 43.4388 20.4246 42.4321 20.4989C42.1748 20.9948 41.928 20.15 41.6321 20.5025C41.4115 20.7653 41.0942 20.9075 40.8426 21.1389C40.6423 21.3232 40.5988 21.2766 40.5666 20.9982C40.4778 20.2302 40.8418 19.8291 41.347 19.5003C43.275 18.2451 45.1823 16.9454 47.2093 15.9174C47.6072 15.7158 47.9618 15.3487 48.2862 14.9928C48.9769 14.2354 49.7191 13.58 50.5337 13.021C51.3353 12.4711 52.0102 12.3732 52.9439 12.7773C53.9032 13.1924 54.8358 13.6637 55.6888 14.348C56.0572 14.6437 56.6757 14.5001 56.8915 14.0539C57.3719 13.0612 57.9529 12.2173 58.8805 11.7928C58.9532 11.7596 59.0097 11.6642 59.0643 11.5878C59.8496 10.4909 60.8249 9.79083 61.9969 9.40664C62.728 9.16714 63.3295 8.55842 63.9208 8.01304C64.6234 7.36488 65.5281 7.10225 66.1183 6.23545C66.4465 5.75341 66.9702 5.92389 67.3857 6.09361C68.0854 6.379 68.7506 6.78216 69.4443 7.09182C70.141 7.40282 70.841 7.73864 71.5649 7.91272C72.056 8.03086 72.4968 8.13953 72.8645 8.5734C72.9925 8.72473 73.2138 8.88155 73.3695 8.85329C73.5884 8.81385 73.8162 8.64452 73.9868 8.46038C74.6854 7.70622 75.4213 6.96552 75.8097 5.91326C76.256 4.70456 77.0606 3.82315 77.6911 2.78398C77.9135 2.41742 78.2122 2.11781 78.4663 1.77704C78.6979 1.46662 78.9448 1.16435 79.1351 0.81941C79.7098 -0.222799 80.5673 0.00456047 81.3913 0.0584164C81.6527 0.54937 82.0719 0.349123 82.4248 0.366001C83.1586 0.401463 83.813 0.724974 84.4835 1.03085C85.6201 1.54949 86.6935 2.26382 87.9582 2.38955C88.37 2.43051 88.8476 2.64972 89.2478 3.03543C89.8879 3.65268 90.7165 3.88611 91.4747 4.25475C91.7646 4.39565 92.1374 4.38636 92.3617 4.60652C92.8485 5.08439 93.4766 5.07529 93.8882 4.87239C94.3951 4.62302 94.8517 4.71859 95.3293 4.67649C95.6225 4.65052 95.9657 4.80336 96.2044 4.66853C96.5977 4.44629 96.9544 3.98946 97.4044 4.14287C98.229 4.4239 99.066 4.72921 99.8246 5.19476C101.287 6.09247 102.707 7.09087 104.127 8.08226C104.978 8.67562 105.8 9.32775 106.627 9.96699C106.93 10.2016 107.043 10.7756 107.485 10.7502C108.224 10.7079 108.965 10.9773 109.704 10.6377C110.796 10.1363 111.903 9.6816 113.009 9.22781C113.785 8.90961 114.557 8.55577 115.354 8.34395C116.474 8.04623 117.605 8.23492 118.398 9.25399C119.495 10.662 120.968 11.3285 122.242 12.3783C122.337 12.4565 122.451 12.5041 122.56 12.5545C122.973 12.7455 123.313 13.031 123.483 13.5442C123.002 13.514 122.499 13.5772 122.045 13.4283C121.565 13.2707 121.105 12.9584 120.684 12.6273C120.222 12.2644 119.576 12.2657 119.269 11.5694C119.206 11.4277 118.908 11.3961 118.715 11.3818C117.989 11.3293 117.225 11.4831 116.645 10.7411C116.603 10.6872 116.486 10.7227 116.406 10.7039C116.074 10.6265 115.925 10.8118 116.022 11.1875C116.265 12.1379 116.357 12.2666 117.424 13.1543C117.774 13.4452 117.805 13.6056 117.507 13.8413C117.173 14.1053 116.872 14.2921 116.388 14.0668C115.591 13.6951 114.991 13.0934 114.473 12.3361C114.212 11.9539 113.911 11.829 113.505 11.8216C112.727 11.8074 111.967 11.8021 111.291 12.3601C111.184 12.4483 111.055 12.4989 110.936 12.5668C111.055 12.7056 111.155 12.9205 111.296 12.9719C113.781 13.8772 116.083 15.2539 118.317 16.8091C118.452 16.9029 118.601 16.9693 118.733 17.0668C118.802 17.1176 118.851 17.2088 118.908 17.2818C118.84 17.33 118.772 17.4189 118.704 17.4197C118.325 17.4233 117.945 17.4053 117.458 17.3916Z" fill="white"/>
<path d="M74.3385 17.7568C74.2026 17.6461 74.1083 17.6093 74.08 17.5359C74.0485 17.4542 74.0413 17.2977 74.0843 17.2452C74.5431 16.6885 74.9748 16.1112 75.3919 15.505C75.7859 14.9329 76.4132 14.5911 76.9332 14.1404C77.1635 13.9409 77.4542 13.7754 77.5943 13.5038C78.257 12.2183 79.2253 11.3361 80.2442 10.5133C80.3696 10.4123 80.5302 10.366 80.6799 10.318C80.757 10.2934 80.8461 10.321 80.9296 10.325C80.9199 10.4316 80.9246 10.5435 80.8978 10.6436C80.7107 11.3409 80.1772 11.6913 79.8053 12.2048C79.7465 12.2858 79.7404 12.5134 79.7938 12.5938C79.8526 12.6821 80.0437 12.7529 80.1157 12.7034C80.6967 12.305 81.2818 11.9629 81.9492 11.7768C82.2972 11.6801 82.5843 11.2717 83.0057 11.3748C82.7664 11.6885 82.5008 11.9795 82.2926 12.3205C81.8615 13.0263 81.1724 13.2512 80.5783 13.6163C79.7359 14.1336 78.7818 14.3992 78.1197 15.293C77.2123 15.4722 76.6258 16.5134 75.6419 16.566C75.344 16.5819 75.0626 17.0624 74.7753 17.3328C74.6216 17.4775 74.4715 17.6275 74.3385 17.7568Z" fill="white"/>
<path d="M60.4664 24.6558C60.2829 24.5519 60.0435 24.4954 60.0285 24.3917C59.9962 24.1723 60.0124 23.8433 60.1293 23.7082C60.777 22.9594 61.3559 22.1049 62.1935 21.6236C62.924 21.204 63.5326 20.5812 64.1624 19.9854C64.821 19.3623 65.5213 18.8008 66.2161 18.2347C66.3234 18.1473 66.499 18.1797 66.6431 18.1566C66.6633 18.3462 66.7464 18.5673 66.6926 18.7196C66.4875 19.2988 66.2293 19.8855 65.7625 20.1946C64.8385 20.8067 64.219 21.8224 63.4118 22.5786C62.6972 23.2482 62.0315 24.0312 61.1143 24.3384C60.8926 24.4125 60.6851 24.547 60.4664 24.6558Z" fill="white"/>
<path d="M40.2554 27.3404C40.1298 27.3368 39.9901 27.3723 39.883 27.3173C39.7989 27.2743 39.7322 27.1277 39.7023 27.0105C39.6855 26.9449 39.7395 26.804 39.7943 26.7685C40.7189 26.1672 41.6528 25.586 42.5757 24.9807C43.0663 24.6591 43.5347 24.3333 44.1397 24.4099C44.6084 24.4694 44.9395 24.079 45.2962 23.7579C45.7855 23.3172 46.2757 23.593 46.3216 24.3039C46.3316 24.4571 46.1706 24.7664 46.156 24.7605C45.6349 24.5542 45.4573 25.2006 45.0908 25.3544C44.8346 25.4618 44.5679 25.6336 44.3116 25.6201C43.7055 25.5884 43.2714 25.9385 42.7692 26.2741C41.9982 26.7888 41.126 27.0873 40.297 27.4775C40.2831 27.4318 40.2693 27.3861 40.2554 27.3404Z" fill="white"/>
<path d="M124.194 22.1186C123.996 22.0006 123.644 21.8725 123.381 21.6132C123.037 21.2732 122.672 21.0438 122.263 20.8323C121.288 20.3285 121.072 20.0907 120.364 19.0843C120.257 18.9322 120.254 18.6747 120.204 18.4659C120.438 18.3886 120.674 18.2475 120.907 18.2545C121.081 18.2596 121.26 18.4386 121.42 18.5704C122.259 19.2633 123.255 19.6278 124.073 20.3554C124.373 20.6217 124.608 20.9943 124.861 21.3305C124.956 21.456 125.017 21.6163 125.094 21.7608C124.926 21.8836 124.762 22.02 124.586 22.123C124.518 22.162 124.42 22.125 124.194 22.1186Z" fill="white"/>
<path d="M38.5998 22.3084C38.4874 22.521 38.4496 22.6915 38.3636 22.7402C37.205 23.3961 36.0503 24.0646 34.8706 24.6627C34.4447 24.8787 33.9584 24.9541 33.4925 25.0114C33.3369 25.0306 33.1466 24.8108 33.0035 24.6581C32.979 24.632 33.0892 24.3659 33.1779 24.2586C33.6057 23.7409 34.0392 23.2892 34.7181 23.2217C35.1201 23.1817 35.5773 22.9385 35.8749 22.6116C36.392 22.0437 37.0877 22.2528 37.6487 21.8781C37.8296 21.7572 38.2439 22.1351 38.5998 22.3084Z" fill="white"/>
<path d="M99.3076 17.1876C98.938 17.2595 98.6412 17.0729 98.3836 16.6927C97.6141 15.5566 96.4963 14.9469 95.5515 14.0746C95.3999 13.9349 95.1969 13.8738 95.0492 13.7302C94.972 13.6553 94.9166 13.4667 94.9384 13.3536C94.9558 13.2632 95.1055 13.1483 95.1958 13.149C95.8207 13.1528 96.4845 13.0853 96.749 14.0173C97.4231 14.3126 97.7126 15.2325 98.5282 15.41C99.0103 15.5147 99.4087 16.2017 99.8283 16.6488C99.9001 16.7253 99.9414 16.9422 99.9018 17.0391C99.865 17.1296 99.7047 17.1603 99.5936 17.1908C99.5145 17.2126 99.4274 17.1908 99.3076 17.1876Z" fill="white"/>
<path d="M90.3102 16.1226C90.2607 16.1694 90.1813 16.3096 90.0956 16.3149C89.6282 16.3445 89.2656 16.0862 88.9302 15.7068C88.5825 15.3135 88.1731 14.9981 87.8255 14.6046C87.5687 14.3143 87.2464 14.059 87.3009 13.5051C87.318 13.3311 87.0814 13.1268 86.9712 12.9285C86.6998 12.4394 86.6274 11.9691 86.7223 12.0114C86.9369 12.1074 87.1293 12.2824 87.3209 12.4423C87.8374 12.8733 88.4053 13.2446 88.848 13.7666C89.3925 14.4087 89.8312 15.1788 90.312 15.8973C90.332 15.9271 90.3128 15.9946 90.3102 16.1226Z" fill="white"/>
<path d="M111.073 17.4237C111.388 17.6122 111.755 17.7808 112.074 18.0343C112.636 18.4794 113.174 18.9681 113.707 19.4611C113.779 19.5276 113.819 19.7571 113.778 19.8519C113.738 19.9428 113.546 20.0326 113.469 19.9921C112.507 19.4795 111.392 19.2859 110.715 18.1674C110.627 18.0224 110.599 17.8255 110.543 17.6526C110.689 17.5894 110.836 17.5263 111.073 17.4237Z" fill="white"/>
<path d="M127.257 16.57C126.91 16.3479 126.551 16.1644 126.243 15.8961C126.131 15.799 126.06 15.4468 126.121 15.305C126.198 15.129 126.334 14.771 126.65 15.1593C126.88 15.44 127.271 15.521 127.564 15.7425C127.679 15.8299 127.72 16.0567 127.795 16.2199C127.639 16.321 127.484 16.4221 127.257 16.57Z" fill="white"/>
<path d="M99.197 12.6713C99.2796 12.5513 99.3656 12.3522 99.4156 12.3643C99.9553 12.4954 100.524 12.5667 100.934 13.0764C100.997 13.1547 100.987 13.3464 100.967 13.4763C100.959 13.5294 100.822 13.6096 100.767 13.589C100.321 13.419 99.8754 13.2408 99.44 13.0339C99.345 12.9888 99.2918 12.8185 99.197 12.6713Z" fill="white"/>
<path d="M119.092 14.4114C119.216 14.4147 119.345 14.3932 119.463 14.4266C119.766 14.5121 120.016 14.7461 119.948 15.1226C119.875 15.5274 119.414 15.3958 119.346 15.2995C119.044 14.8734 118.662 15.0626 118.319 14.9815C118.268 14.9693 118.197 14.8231 118.208 14.7535C118.226 14.6269 118.288 14.4154 118.348 14.4073C118.593 14.3741 118.844 14.4044 119.092 14.4114Z" fill="white"/>
<path d="M77.9041 20.161C78.0701 20.2376 78.1773 20.2867 78.2842 20.3362C78.1674 20.399 78.0539 20.4978 77.9327 20.5139C77.8268 20.5279 77.7122 20.4489 77.6016 20.4111C77.7052 20.3252 77.809 20.2395 77.9041 20.161Z" fill="white"/>
<path d="M60.6275 16.6385C60.3839 16.7646 60.2478 16.8577 60.1016 16.8986C60.0482 16.9136 59.9704 16.8042 59.9036 16.7515C59.9921 16.6335 60.0712 16.5006 60.1748 16.4071C60.2042 16.3809 60.3061 16.4695 60.6275 16.6385Z" fill="white"/>
</svg>
