<svg width="165" height="66" viewBox="0 0 165 66" fill="none" xmlns="http://www.w3.org/2000/svg">
<path d="M9.64 50.083V31.891H21.64V33.019H11.968V40.027H20.248V41.155H11.968V48.955H21.64V50.083H9.64ZM31.3358 50.083H26.2478V31.891H31.2398C32.8238 31.891 34.2718 32.067 35.5838 32.419C36.9118 32.771 38.0878 33.299 39.1118 34.003C40.1518 34.707 40.9598 35.643 41.5358 36.811C42.1278 37.979 42.4238 39.331 42.4238 40.867C42.4238 42.403 42.1278 43.771 41.5358 44.971C40.9598 46.171 40.1598 47.139 39.1358 47.875C38.1118 48.595 36.9358 49.147 35.6078 49.531C34.2958 49.899 32.8718 50.083 31.3358 50.083ZM28.5758 49.027H31.2398C33.8798 49.027 35.9598 48.387 37.4798 47.107C39.0158 45.811 39.7838 43.763 39.7838 40.963C39.7838 38.163 39.0158 36.131 37.4798 34.867C35.9598 33.587 33.8798 32.947 31.2398 32.947H28.5758V49.027ZM47.0275 50.083V31.891H59.0275V33.019H49.3555V40.027H57.6355V41.155H49.3555V48.955H59.0275V50.083H47.0275ZM63.6353 50.083V31.891H65.9633V48.955H75.4913V50.083H63.6353ZM81.2723 50.227L75.2483 31.891H77.6963L82.5683 46.987L87.8243 31.891H89.0723L94.4243 46.867L99.3443 31.891H100.712L94.6883 50.227H93.2483L87.9203 35.491L82.7123 50.227H81.2723ZM104.492 50.083V31.891H116.492V33.019H106.82V40.027H115.1V41.155H106.82V48.955H116.492V50.083H104.492ZM121.099 50.083V31.891H123.427V50.083H121.099ZM134.261 50.371C132.133 50.371 130.373 50.043 128.981 49.387L128.501 44.371H129.221L130.541 48.259C130.797 48.995 132.029 49.363 134.237 49.363C135.533 49.363 136.573 49.067 137.357 48.475C138.141 47.867 138.533 47.035 138.533 45.979C138.533 44.923 138.197 44.107 137.525 43.531C136.853 42.939 135.781 42.403 134.309 41.923L133.013 41.491C129.973 40.467 128.453 38.715 128.453 36.235C128.453 34.795 129.077 33.651 130.325 32.803C131.589 31.939 133.101 31.507 134.861 31.507C136.685 31.507 138.117 31.771 139.157 32.299L139.805 36.979H139.085L137.717 33.547C137.445 32.859 136.445 32.515 134.717 32.515C133.565 32.515 132.597 32.779 131.813 33.307C131.045 33.819 130.661 34.539 130.661 35.467C130.661 36.331 130.901 37.051 131.381 37.627C131.861 38.203 132.629 38.667 133.685 39.019L134.981 39.451C136.885 40.075 138.325 40.811 139.301 41.659C140.293 42.507 140.789 43.675 140.789 45.163C140.789 46.683 140.157 47.931 138.893 48.907C137.629 49.883 136.085 50.371 134.261 50.371ZM150.306 50.371C148.178 50.371 146.418 50.043 145.026 49.387L144.546 44.371H145.266L146.586 48.259C146.842 48.995 148.074 49.363 150.282 49.363C151.578 49.363 152.618 49.067 153.402 48.475C154.186 47.867 154.578 47.035 154.578 45.979C154.578 44.923 154.242 44.107 153.57 43.531C152.898 42.939 151.826 42.403 150.354 41.923L149.058 41.491C146.018 40.467 144.498 38.715 144.498 36.235C144.498 34.795 145.122 33.651 146.37 32.803C147.634 31.939 149.146 31.507 150.906 31.507C152.73 31.507 154.162 31.771 155.202 32.299L155.85 36.979H155.13L153.762 33.547C153.49 32.859 152.49 32.515 150.762 32.515C149.61 32.515 148.642 32.779 147.858 33.307C147.09 33.819 146.706 34.539 146.706 35.467C146.706 36.331 146.946 37.051 147.426 37.627C147.906 38.203 148.674 38.667 149.73 39.019L151.026 39.451C152.93 40.075 154.37 40.811 155.346 41.659C156.338 42.507 156.834 43.675 156.834 45.163C156.834 46.683 156.202 47.931 154.938 48.907C153.674 49.883 152.13 50.371 150.306 50.371Z" fill="white"/>
<path d="M1.6 63.083H0.96V58.043H4.06V58.623H1.6V63.083ZM5.5518 62.393C5.11846 61.873 4.9018 61.263 4.9018 60.563C4.9018 59.863 5.11846 59.2563 5.5518 58.743C5.98513 58.223 6.55513 57.963 7.2618 57.963C7.96846 57.963 8.53846 58.223 8.9718 58.743C9.40513 59.2563 9.6218 59.863 9.6218 60.563C9.6218 61.263 9.40513 61.873 8.9718 62.393C8.53846 62.9063 7.96846 63.163 7.2618 63.163C6.55513 63.163 5.98513 62.9063 5.5518 62.393ZM6.0118 59.153C5.70513 59.553 5.5518 60.023 5.5518 60.563C5.5518 61.103 5.70513 61.5763 6.0118 61.983C6.31846 62.383 6.73513 62.583 7.2618 62.583C7.78846 62.583 8.20513 62.383 8.5118 61.983C8.81846 61.5763 8.9718 61.103 8.9718 60.563C8.9718 60.023 8.81846 59.553 8.5118 59.153C8.20513 58.7463 7.78846 58.543 7.2618 58.543C6.73513 58.543 6.31846 58.7463 6.0118 59.153ZM11.5816 62.403C11.1883 61.8897 10.9916 61.2763 10.9916 60.563C10.9916 59.8497 11.1883 59.2397 11.5816 58.733C11.975 58.2197 12.5216 57.963 13.2216 57.963C14.2283 57.963 14.905 58.4263 15.2516 59.353L14.6916 59.573C14.4116 58.8863 13.9216 58.543 13.2216 58.543C12.7083 58.543 12.315 58.7363 12.0416 59.123C11.775 59.503 11.6416 59.983 11.6416 60.563C11.6416 61.143 11.775 61.6263 12.0416 62.013C12.315 62.393 12.7083 62.583 13.2216 62.583C13.9216 62.583 14.4116 62.2397 14.6916 61.553L15.2516 61.773C14.905 62.6997 14.2283 63.163 13.2216 63.163C12.5216 63.163 11.975 62.9097 11.5816 62.403ZM17.756 58.623H16.336V58.043H19.796V58.623H18.376V63.083H17.756V58.623ZM21.8583 63.083H21.1983V58.043H21.8183V62.103L24.4783 58.043H25.1383V63.083H24.5183V59.023L21.8583 63.083ZM27.664 63.083H27.044V58.043H27.664V60.113H30.124V58.043H30.744V63.083H30.124V60.693H27.664V63.083ZM32.8753 62.433C32.462 61.9397 32.2553 61.3163 32.2553 60.563C32.2553 59.8097 32.462 59.1897 32.8753 58.703C33.2886 58.2097 33.8286 57.963 34.4953 57.963C35.1486 57.963 35.6786 58.1763 36.0853 58.603C36.4986 59.0297 36.7053 59.5897 36.7053 60.283V60.563H32.9053C32.9053 61.163 33.0453 61.6497 33.3253 62.023C33.612 62.3963 34.002 62.583 34.4953 62.583C34.8753 62.583 35.182 62.4997 35.4153 62.333C35.6486 62.1663 35.8586 61.8897 36.0453 61.503L36.5953 61.773C36.342 62.273 36.0486 62.6297 35.7153 62.843C35.382 63.0563 34.9753 63.163 34.4953 63.163C33.8286 63.163 33.2886 62.9197 32.8753 62.433ZM32.9453 59.983H36.0653C36.0053 59.5297 35.842 59.1763 35.5753 58.923C35.3086 58.6697 34.9486 58.543 34.4953 58.543C34.0953 58.543 33.7553 58.6763 33.4753 58.943C33.202 59.2097 33.0253 59.5563 32.9453 59.983ZM38.3629 60.743V58.043H38.9829V60.683C38.9829 60.9897 39.0662 61.2197 39.2329 61.373C39.3996 61.5263 39.6196 61.603 39.8929 61.603C40.4862 61.603 41.0162 61.2563 41.4829 60.563V58.043H42.1029V63.083H41.4829V61.353C41.0229 61.893 40.4562 62.163 39.7829 62.163C39.3496 62.163 39.0029 62.0363 38.7429 61.783C38.4896 61.523 38.3629 61.1763 38.3629 60.743ZM44.7714 63.083H44.1514V58.043H44.7714V60.113H47.2314V58.043H47.8514V63.083H47.2314V60.693H44.7714V63.083ZM51.453 63.083H49.753V58.043H50.373V59.963H51.453C51.9996 59.963 52.4163 60.103 52.703 60.383C52.9896 60.6563 53.133 61.0363 53.133 61.523C53.133 62.0097 52.9896 62.393 52.703 62.673C52.4163 62.9463 51.9996 63.083 51.453 63.083ZM50.373 60.543V62.503H51.183C51.623 62.503 51.943 62.4263 52.143 62.273C52.343 62.113 52.443 61.863 52.443 61.523C52.443 61.183 52.343 60.9363 52.143 60.783C51.943 60.623 51.623 60.543 51.183 60.543H50.373ZM54.783 63.083H54.163V58.043H54.783V63.083ZM57.2645 63.083H56.6045V58.043H57.2245V62.103L59.8845 58.043H60.5445V63.083H59.9245V59.023L57.2645 63.083ZM57.5245 56.083H58.0345C58.0345 56.263 58.0812 56.4063 58.1745 56.513C58.2679 56.6197 58.4012 56.673 58.5745 56.673C58.9345 56.673 59.1145 56.4763 59.1145 56.083H59.6245C59.6245 56.4097 59.5312 56.673 59.3445 56.873C59.1645 57.073 58.9079 57.173 58.5745 57.173C58.2545 57.173 57.9979 57.073 57.8045 56.873C57.6179 56.673 57.5245 56.4097 57.5245 56.083ZM66.1034 63.083H65.4834V58.043H66.1034V60.273L68.2134 58.043H68.9934L66.8134 60.353L69.1734 63.083H68.3834L66.1034 60.433V63.083ZM70.8077 62.393C70.3743 61.873 70.1577 61.263 70.1577 60.563C70.1577 59.863 70.3743 59.2563 70.8077 58.743C71.241 58.223 71.811 57.963 72.5177 57.963C73.2243 57.963 73.7943 58.223 74.2277 58.743C74.661 59.2563 74.8777 59.863 74.8777 60.563C74.8777 61.263 74.661 61.873 74.2277 62.393C73.7943 62.9063 73.2243 63.163 72.5177 63.163C71.811 63.163 71.241 62.9063 70.8077 62.393ZM71.2677 59.153C70.961 59.553 70.8077 60.023 70.8077 60.563C70.8077 61.103 70.961 61.5763 71.2677 61.983C71.5743 62.383 71.991 62.583 72.5177 62.583C73.0443 62.583 73.461 62.383 73.7677 61.983C74.0743 61.5763 74.2277 61.103 74.2277 60.563C74.2277 60.023 74.0743 59.553 73.7677 59.153C73.461 58.7463 73.0443 58.543 72.5177 58.543C71.991 58.543 71.5743 58.7463 71.2677 59.153ZM77.0429 63.083H76.4229V58.043H77.2629L78.6929 61.603L80.1229 58.043H80.9629V63.083H80.3429V59.023L78.9129 62.623H78.4729L77.0429 59.023V63.083ZM83.5038 63.083H82.8838V58.043H86.5938V63.083H85.9738V58.623H83.5038V63.083ZM87.7803 63.083V62.503C88.127 62.503 88.3703 62.433 88.5103 62.293C88.657 62.1463 88.7436 61.9063 88.7703 61.573L89.1203 58.043H92.3203V63.083H91.7003V58.623H89.7003L89.3803 61.723C89.327 62.1963 89.177 62.543 88.9303 62.763C88.6903 62.9763 88.307 63.083 87.7803 63.083ZM94.4827 62.433C94.0694 61.9397 93.8627 61.3163 93.8627 60.563C93.8627 59.8097 94.0694 59.1897 94.4827 58.703C94.8961 58.2097 95.4361 57.963 96.1027 57.963C96.7561 57.963 97.2861 58.1763 97.6927 58.603C98.1061 59.0297 98.3127 59.5897 98.3127 60.283V60.563H94.5127C94.5127 61.163 94.6527 61.6497 94.9327 62.023C95.2194 62.3963 95.6094 62.583 96.1027 62.583C96.4827 62.583 96.7894 62.4997 97.0227 62.333C97.2561 62.1663 97.4661 61.8897 97.6527 61.503L98.2027 61.773C97.9494 62.273 97.6561 62.6297 97.3227 62.843C96.9894 63.0563 96.5827 63.163 96.1027 63.163C95.4361 63.163 94.8961 62.9197 94.4827 62.433ZM94.5527 59.983H97.6727C97.6127 59.5297 97.4494 59.1763 97.1827 58.923C96.9161 58.6697 96.5561 58.543 96.1027 58.543C95.7027 58.543 95.3627 58.6763 95.0827 58.943C94.8094 59.2097 94.6327 59.5563 94.5527 59.983ZM100.426 63.083H99.8057V58.043H100.426V60.273L102.536 58.043H103.316L101.136 60.353L103.496 63.083H102.706L100.426 60.433V63.083ZM105.07 62.403C104.677 61.8897 104.48 61.2763 104.48 60.563C104.48 59.8497 104.677 59.2397 105.07 58.733C105.463 58.2197 106.01 57.963 106.71 57.963C107.717 57.963 108.393 58.4263 108.74 59.353L108.18 59.573C107.9 58.8863 107.41 58.543 106.71 58.543C106.197 58.543 105.803 58.7363 105.53 59.123C105.263 59.503 105.13 59.983 105.13 60.563C105.13 61.143 105.263 61.6263 105.53 62.013C105.803 62.393 106.197 62.583 106.71 62.583C107.41 62.583 107.9 62.2397 108.18 61.553L108.74 61.773C108.393 62.6997 107.717 63.163 106.71 63.163C106.01 63.163 105.463 62.9097 105.07 62.403ZM115.053 63.083H113.183V58.043H115.073C115.499 58.043 115.839 58.153 116.093 58.373C116.346 58.593 116.473 58.8997 116.473 59.293C116.473 59.7463 116.283 60.0897 115.903 60.323C116.416 60.583 116.673 60.9897 116.673 61.543C116.673 61.9963 116.526 62.3663 116.233 62.653C115.939 62.9397 115.546 63.083 115.053 63.083ZM113.803 60.683V62.503H115.023C115.709 62.503 116.053 62.1997 116.053 61.593C116.053 60.9863 115.709 60.683 115.023 60.683H113.803ZM113.803 58.623V60.103H115.063C115.589 60.103 115.853 59.8563 115.853 59.363C115.853 58.8697 115.589 58.623 115.063 58.623H113.803ZM121.032 63.083H120.352L122.882 56.083H123.462L125.992 63.083H125.312L124.612 61.093H121.732L121.032 63.083ZM123.172 56.983L121.942 60.473H124.402L123.172 56.983ZM126.902 59.983C126.902 57.383 127.755 56.083 129.462 56.083H129.832C130.105 56.083 130.292 56.0497 130.392 55.983C130.498 55.9163 130.582 55.793 130.642 55.613H131.132C131.085 56.313 130.708 56.663 130.002 56.663H129.512C128.385 56.663 127.752 57.3697 127.612 58.783C128.058 58.2363 128.682 57.963 129.482 57.963C130.135 57.963 130.658 58.213 131.052 58.713C131.452 59.213 131.652 59.8297 131.652 60.563C131.652 61.2963 131.435 61.913 131.002 62.413C130.568 62.913 129.995 63.163 129.282 63.163C128.542 63.163 127.958 62.893 127.532 62.353C127.112 61.8063 126.902 61.0163 126.902 59.983ZM128.022 59.143C127.715 59.543 127.562 60.0163 127.562 60.563C127.562 61.1097 127.715 61.583 128.022 61.983C128.328 62.383 128.748 62.583 129.282 62.583C129.815 62.583 130.235 62.383 130.542 61.983C130.848 61.583 131.002 61.1097 131.002 60.563C131.002 60.0163 130.848 59.543 130.542 59.143C130.235 58.743 129.815 58.543 129.282 58.543C128.748 58.543 128.328 58.743 128.022 59.143ZM133.031 61.703L133.641 61.633C133.688 61.9063 133.794 62.133 133.961 62.313C134.134 62.493 134.374 62.583 134.681 62.583C134.988 62.583 135.231 62.483 135.411 62.283C135.598 62.0763 135.691 61.8197 135.691 61.513C135.691 61.2063 135.608 60.953 135.441 60.753C135.274 60.5463 135.041 60.443 134.741 60.443C134.614 60.443 134.481 60.4697 134.341 60.523L134.011 60.103L135.071 58.623H133.261V58.043H136.071V58.193L134.751 59.993C134.844 59.973 134.931 59.963 135.011 59.963C135.391 59.963 135.708 60.1063 135.961 60.393C136.214 60.6797 136.341 61.053 136.341 61.513C136.341 61.9663 136.178 62.3563 135.851 62.683C135.531 63.003 135.141 63.163 134.681 63.163C134.241 63.163 133.864 63.0297 133.551 62.763C133.244 62.4897 133.071 62.1363 133.031 61.703ZM137.666 61.633C137.666 61.0863 137.869 60.6763 138.276 60.403C138.689 60.123 139.259 59.983 139.986 59.983H140.826V59.763C140.826 58.9497 140.439 58.543 139.666 58.543C139.052 58.543 138.652 58.8563 138.466 59.483L137.866 59.343C137.932 58.923 138.132 58.5897 138.466 58.343C138.806 58.0897 139.206 57.963 139.666 57.963C140.179 57.963 140.602 58.123 140.936 58.443C141.276 58.7563 141.446 59.1897 141.446 59.743V63.083H140.976L140.826 62.303C140.499 62.8763 139.969 63.163 139.236 63.163C138.776 63.163 138.399 63.0397 138.106 62.793C137.812 62.5397 137.666 62.153 137.666 61.633ZM138.316 61.633C138.316 61.9397 138.402 62.1763 138.576 62.343C138.749 62.503 138.989 62.583 139.296 62.583C139.682 62.583 140.032 62.433 140.346 62.133C140.666 61.833 140.826 61.373 140.826 60.753V60.563H140.006C138.879 60.563 138.316 60.9197 138.316 61.633ZM143.76 63.083H143.14V58.043H143.76V60.273L145.87 58.043H146.65L144.47 60.353L146.83 63.083H146.04L143.76 60.433V63.083ZM148.464 62.393C148.031 61.873 147.814 61.263 147.814 60.563C147.814 59.863 148.031 59.2563 148.464 58.743C148.897 58.223 149.467 57.963 150.174 57.963C150.881 57.963 151.451 58.223 151.884 58.743C152.317 59.2563 152.534 59.863 152.534 60.563C152.534 61.263 152.317 61.873 151.884 62.393C151.451 62.9063 150.881 63.163 150.174 63.163C149.467 63.163 148.897 62.9063 148.464 62.393ZM148.924 59.153C148.617 59.553 148.464 60.023 148.464 60.563C148.464 61.103 148.617 61.5763 148.924 61.983C149.231 62.383 149.647 62.583 150.174 62.583C150.701 62.583 151.117 62.383 151.424 61.983C151.731 61.5763 151.884 61.103 151.884 60.563C151.884 60.023 151.731 59.553 151.424 59.153C151.117 58.7463 150.701 58.543 150.174 58.543C149.647 58.543 149.231 58.7463 148.924 59.153ZM155.871 63.083H154.001V58.043H155.891C156.318 58.043 156.658 58.153 156.911 58.373C157.164 58.593 157.291 58.8997 157.291 59.293C157.291 59.7463 157.101 60.0897 156.721 60.323C157.234 60.583 157.491 60.9897 157.491 61.543C157.491 61.9963 157.344 62.3663 157.051 62.653C156.758 62.9397 156.364 63.083 155.871 63.083ZM154.621 60.683V62.503H155.841C156.528 62.503 156.871 62.1997 156.871 61.593C156.871 60.9863 156.528 60.683 155.841 60.683H154.621ZM154.621 58.623V60.103H155.881C156.408 60.103 156.671 59.8563 156.671 59.363C156.671 58.8697 156.408 58.623 155.881 58.623H154.621ZM159.433 62.393C158.999 61.873 158.783 61.263 158.783 60.563C158.783 59.863 158.999 59.2563 159.433 58.743C159.866 58.223 160.436 57.963 161.143 57.963C161.849 57.963 162.419 58.223 162.853 58.743C163.286 59.2563 163.503 59.863 163.503 60.563C163.503 61.263 163.286 61.873 162.853 62.393C162.419 62.9063 161.849 63.163 161.143 63.163C160.436 63.163 159.866 62.9063 159.433 62.393ZM159.893 59.153C159.586 59.553 159.433 60.023 159.433 60.563C159.433 61.103 159.586 61.5763 159.893 61.983C160.199 62.383 160.616 62.583 161.143 62.583C161.669 62.583 162.086 62.383 162.393 61.983C162.699 61.5763 162.853 61.103 162.853 60.563C162.853 60.023 162.699 59.553 162.393 59.153C162.086 58.7463 161.669 58.543 161.143 58.543C160.616 58.543 160.199 58.7463 159.893 59.153Z" fill="white"/>
<path d="M117.216 23.0516C115.971 23.1878 114.852 22.2855 113.739 21.5893C113.046 21.1557 112.157 21.2011 111.638 20.3228C110.867 20.266 110.217 19.711 109.521 19.4018C108.287 18.8536 107.082 18.1531 106.049 16.9928C104.435 15.1791 102.508 13.9152 100.664 12.5294C99.7983 11.8787 99.0456 10.9593 98.0418 10.6076C97.8191 10.5297 97.6216 10.3321 97.3978 10.27C97.0228 10.1662 96.8358 10.2316 97.1456 10.778C97.2391 10.9431 97.1198 11.3074 97.1085 11.5809C97.0519 12.9409 97.448 13.7047 98.4986 14.3082C98.6389 14.3888 98.7423 14.6204 98.8807 14.6467C99.175 14.7019 99.2572 14.9547 99.1143 15.1817C98.9763 15.4008 98.7046 15.4798 98.4915 15.6204C98.2355 14.9279 97.6049 15.3764 97.1936 14.9152C96.8541 14.5348 96.5097 14.1383 96.2781 13.6834C95.812 12.7672 94.9134 12.5713 94.4507 11.6921C93.9531 11.8328 93.4445 11.9257 92.9621 12.1303C92.6265 12.2725 92.3289 12.5726 92.0104 12.7919C91.9115 12.8601 91.7993 12.8947 91.693 12.9449C91.7997 13.0047 91.9074 13.0611 92.0125 13.1247C93.0375 13.7474 93.713 14.8662 94.3955 15.9671C94.4697 16.0871 94.4511 16.3435 94.4151 16.5174C94.404 16.5722 94.171 16.6293 94.0798 16.5755C93.0723 15.9812 91.8784 16.1668 90.9166 15.3557C90.3365 14.8666 89.6628 14.5562 89.0951 14.0479C88.3196 13.3536 87.6052 12.5465 86.8637 11.7889C85.9064 10.8109 84.9094 9.88969 84.0064 8.83395C83.5397 8.288 83.172 7.55083 82.883 6.8155C82.5816 6.04861 82.091 5.63987 81.5682 5.22828C81.3362 5.0456 81.1283 4.79729 80.8803 4.66703C80.6422 4.54261 80.4799 4.20562 80.0877 4.6601C78.792 6.16136 77.7007 7.8524 76.7083 9.68982C75.7108 11.5367 74.8275 13.5142 73.412 14.9388C73.1307 15.2218 72.9478 15.6658 72.7009 16.0135C72.2815 16.6041 71.8761 17.2209 71.4106 17.7452C70.9778 18.2327 70.4971 18.6704 69.9956 19.0277C69.404 19.4492 68.8122 19.9187 68.0761 19.7964C67.7885 19.7487 67.4761 19.9079 67.175 19.9728C67.3434 19.5973 67.5781 19.2437 67.666 18.8412C67.8378 18.0524 68.3121 17.6305 68.7339 17.1269C70.0063 15.608 71.2745 14.0831 72.5418 12.5571C72.5881 12.5017 72.6082 12.4097 72.6405 12.3345C72.5694 12.2949 72.5006 12.23 72.4267 12.2206C72.1755 12.1883 71.9174 12.2065 71.6707 12.1499C70.7543 11.9393 69.9901 12.2679 69.3014 13.1294C69.0262 13.4733 68.6131 13.6442 68.25 13.8543C67.5473 14.2612 66.8444 14.6289 66.2552 15.3347C65.7385 15.9538 65.022 16.042 64.3648 16.1591C63.9687 16.2294 63.6867 16.2408 63.4786 16.8071C63.3279 17.2175 62.9742 17.5212 62.6835 17.8286C62.5723 17.946 62.3866 17.9551 62.232 17.9856C62.1569 18.0002 62.0755 17.9498 61.9971 17.9288C62.0324 17.8152 62.0439 17.6669 62.107 17.5931C62.8214 16.7584 63.4707 15.7968 64.1984 15.0314C65.2563 13.9189 66.2731 12.6152 67.6782 12.1412C68.0879 12.003 68.4474 11.577 68.8195 11.2613C68.8595 11.2274 68.8527 10.9631 68.8278 10.9524C68.4544 10.7934 68.0786 10.6372 67.6945 10.5268C67.4466 10.4555 67.2228 10.4352 67.1685 10.9526C67.1495 11.1333 66.7841 11.2649 66.5764 11.418C65.8713 11.9374 65.1372 12.3761 64.4996 13.0632C63.8456 13.7673 63.0342 14.0807 62.2267 14.3717C61.9254 14.4805 61.5482 14.5525 61.3581 14.8215C60.3991 16.1786 58.9734 16.7639 58.1177 18.3394C57.7577 19.0021 57.0118 19.4145 56.3815 19.719C55.2688 20.2561 54.3335 21.1813 53.36 21.9906C52.5384 22.6733 51.7458 23.4082 50.8311 23.8287C50.1207 24.1554 49.5324 24.8598 48.7578 24.9621C48.479 24.9988 48.201 25.0543 47.922 25.073C47.8888 25.0751 47.8082 24.8292 47.8231 24.813C48.6014 23.9675 49.3908 23.1394 50.1722 22.2984C50.8474 21.5715 51.7564 21.3041 52.2601 20.1904C52.5512 19.5464 53.1223 19.0455 53.7879 18.9498C53.8615 18.9392 53.9726 18.7329 53.974 18.6188C53.9754 18.513 53.8695 18.362 53.7818 18.3118C53.2153 17.9882 52.61 17.7524 52.0813 17.3504C51.8061 17.1412 51.6957 17.2149 51.4482 17.3784C50.6901 17.8793 50.0787 18.6168 49.4585 19.3385C48.5865 20.3537 47.6279 20.9457 46.4445 20.6855C45.8145 20.547 45.2965 20.8717 44.7209 21.2435C43.8788 21.7872 43.1244 22.6756 42.1149 22.7064C41.8313 23.2316 41.6302 22.3029 41.3157 22.6707C41.0812 22.9449 40.7567 23.0834 40.4929 23.322C40.2829 23.512 40.242 23.4593 40.2248 23.1557C40.1775 22.3181 40.5626 21.901 41.0849 21.5693C43.078 20.303 45.0529 18.9874 47.1327 17.9726C47.541 17.7736 47.9149 17.3929 48.2581 17.0228C48.9887 16.2353 49.7652 15.5611 50.6089 14.995C51.4391 14.4381 52.1184 14.3653 53.0292 14.85C53.9651 15.3478 54.8711 15.9053 55.6862 16.69C56.0383 17.029 56.6638 16.9039 56.9033 16.4305C57.4366 15.3773 58.0622 14.4906 59.0115 14.0759C59.0859 14.0435 59.1475 13.9428 59.2062 13.8626C60.0495 12.7116 61.0613 12.0003 62.2525 11.6416C62.9956 11.418 63.6291 10.7874 64.249 10.225C64.9856 9.55659 65.9034 9.31648 66.5394 8.40532C66.8932 7.89862 67.4071 8.10951 67.813 8.31422C68.4964 8.6585 69.1392 9.12883 69.8153 9.49915C70.4944 9.87105 71.1755 10.2701 71.8892 10.4948C72.3733 10.6473 72.8077 10.787 73.1515 11.2759C73.2713 11.4464 73.4839 11.6275 73.6409 11.6046C73.8617 11.5726 74.0983 11.4002 74.2786 11.2089C75.0169 10.4253 75.7917 9.65818 76.2363 8.53583C76.7471 7.24662 77.5982 6.33025 78.2838 5.23409C78.5256 4.84743 78.8401 4.53718 79.1122 4.18007C79.3602 3.85477 79.623 3.53906 79.8317 3.17427C80.4618 2.07205 81.306 2.36119 82.126 2.46043C82.3607 3.00601 82.7902 2.80953 83.1417 2.84532C83.8727 2.92013 84.5089 3.30353 85.1621 3.66858C86.2695 4.28755 87.3031 5.11569 88.5595 5.31474C88.9686 5.37957 89.4338 5.64105 89.8127 6.07933C90.4189 6.78068 91.2339 7.07497 91.9713 7.51247C92.2532 7.67968 92.6262 7.68808 92.8383 7.93804C93.2988 8.48059 93.9266 8.50182 94.3486 8.30208C94.8683 8.05665 95.3192 8.18296 95.7985 8.16094C96.0927 8.14728 96.4273 8.3301 96.673 8.19565C97.0778 7.97402 97.4586 7.49608 97.8998 7.68481C98.7082 8.03054 99.5278 8.40323 100.26 8.94587C101.672 9.99221 103.037 11.1457 104.403 12.2916C105.22 12.9775 106.006 13.7257 106.798 14.4602C107.088 14.7297 107.17 15.358 107.613 15.3524C108.353 15.3431 109.078 15.6721 109.835 15.3403C110.952 14.8504 112.082 14.4119 113.212 13.9744C114.004 13.6676 114.794 13.322 115.602 13.1316C116.736 12.8641 117.855 13.1248 118.593 14.2697C119.612 15.8516 121.048 16.6477 122.264 17.8497C122.354 17.9391 122.466 17.9964 122.572 18.0566C122.974 18.2842 123.298 18.6109 123.441 19.176C122.962 19.1194 122.456 19.1631 122.011 18.9791C121.54 18.7843 121.097 18.4227 120.694 18.0426C120.252 17.626 119.607 17.5954 119.338 16.8248C119.283 16.668 118.987 16.6189 118.795 16.5939C118.072 16.5009 117.301 16.6299 116.762 15.7962C116.723 15.7357 116.604 15.7684 116.525 15.744C116.198 15.6437 116.039 15.8373 116.115 16.2496C116.307 17.2928 116.392 17.437 117.41 18.4529C117.743 18.7858 117.766 18.9614 117.456 19.2023C117.108 19.4722 116.798 19.6599 116.326 19.3915C115.55 18.9488 114.983 18.2663 114.507 17.419C114.266 16.9915 113.973 16.841 113.567 16.8129C112.792 16.7589 112.032 16.7155 111.327 17.2875C111.215 17.3779 111.084 17.4264 110.961 17.4942C111.073 17.6506 111.161 17.8887 111.299 17.9514C113.732 19.0567 115.957 20.6643 118.106 22.4621C118.235 22.5707 118.38 22.65 118.507 22.7623C118.573 22.8209 118.617 22.9222 118.67 23.0043C118.6 23.0532 118.527 23.1463 118.459 23.1438C118.08 23.1289 117.702 23.0905 117.216 23.0516" fill="white"/>
<path d="M74.1296 21.3119C73.9999 21.1851 73.9077 21.1405 73.8834 21.0595C73.8563 20.9692 73.8575 20.7991 73.9033 20.7443C74.3914 20.163 74.8537 19.5581 75.303 18.9211C75.7272 18.3199 76.3721 17.9803 76.9158 17.517C77.1565 17.312 77.4557 17.1468 77.6103 16.8591C78.3414 15.4973 79.3559 14.5882 80.4178 13.746C80.5485 13.6426 80.7114 13.6003 80.8635 13.5557C80.9419 13.5328 81.0293 13.5672 81.1125 13.5757C81.0971 13.6908 81.0958 13.8124 81.0636 13.9197C80.8392 14.6669 80.2875 15.0207 79.8884 15.5594C79.8254 15.6443 79.807 15.8909 79.8561 15.9808C79.91 16.0796 80.0971 16.1658 80.1717 16.1156C80.7734 15.7122 81.3762 15.37 82.0528 15.2013C82.4055 15.1136 82.7143 14.6847 83.1296 14.8174C82.8737 15.1459 82.5928 15.4485 82.3665 15.8081C81.8979 16.5525 81.1976 16.7623 80.5846 17.1289C79.7154 17.6484 78.7481 17.8894 78.0388 18.8262C77.1228 18.9757 76.481 20.0763 75.4956 20.0845C75.1971 20.087 74.8902 20.5944 74.5887 20.8736C74.4275 21.0229 74.2694 21.1782 74.1296 21.3119" fill="white"/>
<path d="M59.9033 28.1094C59.7257 27.9876 59.4896 27.9145 59.4802 27.8012C59.4598 27.5616 59.4937 27.2054 59.6176 27.0647C60.3049 26.2844 60.929 25.386 61.7915 24.9054C62.5437 24.4863 63.185 23.8408 63.8461 23.2256C64.5374 22.5822 65.2671 22.0077 65.9915 21.4281C66.1033 21.3385 66.2769 21.3824 66.4221 21.3645C66.4321 21.5712 66.5032 21.8152 66.4413 21.9777C66.2053 22.5958 65.9158 23.2196 65.4329 23.5318C64.4772 24.1501 63.8037 25.2213 62.9569 26.0018C62.2071 26.6928 61.5001 27.5093 60.5676 27.7972C60.3421 27.8666 60.1277 28.0022 59.9033 28.1094" fill="white"/>
<path d="M39.5729 30.0208C39.4476 30.0106 39.3062 30.0422 39.2022 29.9772C39.1205 29.9264 39.0618 29.764 39.0383 29.6354C39.025 29.5634 39.0865 29.4132 39.1431 29.3775C40.0989 28.7709 41.063 28.1866 42.0173 27.5756C42.5246 27.251 43.01 26.9208 43.6101 27.0338C44.075 27.1217 44.4267 26.7145 44.8002 26.3838C45.3127 25.93 45.7874 26.2534 45.795 27.0269C45.7967 27.1936 45.6193 27.5212 45.6051 27.5141C45.0957 27.2645 44.8835 27.957 44.5092 28.1057C44.2475 28.2094 43.9719 28.3826 43.7166 28.3553C43.1131 28.2909 42.6606 28.6492 42.141 28.9885C41.3433 29.5086 40.456 29.7893 39.607 30.1716C39.5957 30.1213 39.5843 30.071 39.5729 30.0208Z" fill="white"/>
<path d="M123.689 28.5134C123.498 28.3756 123.153 28.2191 122.905 27.9248C122.579 27.5389 122.227 27.2719 121.829 27.0222C120.883 26.4273 120.681 26.1587 120.027 25.0318C119.928 24.8615 119.94 24.582 119.9 24.3529C120.139 24.2806 120.382 24.1393 120.614 24.1584C120.787 24.1726 120.957 24.3757 121.109 24.5265C121.911 25.3199 122.886 25.7646 123.664 26.5945C123.949 26.8982 124.163 27.3141 124.398 27.6914C124.486 27.8323 124.539 28.0092 124.608 28.1697C124.433 28.2947 124.262 28.4345 124.08 28.5375C124.011 28.5765 123.915 28.5316 123.689 28.5134Z" fill="white"/>
<path d="M38.1901 24.4796C38.0664 24.7047 38.0195 24.8878 37.9309 24.9364C36.7385 25.5906 35.5492 26.2586 34.3388 26.849C33.9018 27.0623 33.412 27.1201 32.9436 27.1591C32.7872 27.1722 32.609 26.9243 32.4742 26.7516C32.4512 26.722 32.5755 26.4388 32.6699 26.3268C33.125 25.7863 33.5823 25.3178 34.264 25.2781C34.6677 25.2547 35.1373 25.0135 35.4522 24.6736C35.9993 24.0831 36.6829 24.3445 37.2633 23.9657C37.4505 23.8434 37.844 24.274 38.1901 24.4796Z" fill="white"/>
<path d="M99.0989 21.9312C98.726 21.9908 98.4395 21.7737 98.2027 21.3484C97.4952 20.0778 96.4116 19.361 95.515 18.3679C95.3711 18.2087 95.1716 18.1324 95.0317 17.9694C94.9587 17.8843 94.9136 17.6768 94.9414 17.5553C94.9637 17.458 95.1193 17.3408 95.2095 17.3461C95.8334 17.3811 96.5001 17.3408 96.714 18.365C97.3715 18.7188 97.6111 19.7311 98.4161 19.9641C98.892 20.1015 99.2529 20.8666 99.648 21.3725C99.7156 21.4589 99.7451 21.6963 99.7004 21.7995C99.6588 21.8958 99.497 21.9212 99.3844 21.9488C99.3043 21.9686 99.2184 21.9406 99.0989 21.9312" fill="white"/>
<path d="M90.1698 20.33C90.1178 20.3784 90.031 20.5265 89.9451 20.528C89.4766 20.5369 89.1284 20.2388 88.8138 19.8105C88.4876 19.3666 88.0958 19.0042 87.7697 18.5601C87.5289 18.2324 87.2208 17.9395 87.3049 17.3413C87.3314 17.1533 87.106 16.92 87.0067 16.6993C86.7619 16.1553 86.7149 15.6415 86.8074 15.6921C87.0166 15.8068 87.1994 16.0063 87.3821 16.1892C87.8748 16.6824 88.422 17.1133 88.8361 17.7016C89.3453 18.4252 89.7421 19.2824 90.1836 20.0857C90.202 20.119 90.1792 20.1913 90.1698 20.33" fill="white"/>
<path d="M110.838 22.77C111.142 22.99 111.499 23.1911 111.804 23.482C112.341 23.9926 112.852 24.5495 113.358 25.1108C113.426 25.1866 113.454 25.4375 113.408 25.5383C113.364 25.6349 113.166 25.7229 113.092 25.6751C112.158 25.0713 111.055 24.806 110.439 23.5591C110.359 23.3973 110.342 23.1824 110.296 22.992C110.445 22.9307 110.595 22.8695 110.838 22.77" fill="white"/>
<path d="M127.047 22.6455C126.712 22.3873 126.363 22.1702 126.07 21.8637C125.964 21.7528 125.912 21.3671 125.981 21.2161C126.067 21.0289 126.222 20.647 126.517 21.0843C126.731 21.4003 127.118 21.5076 127.398 21.7624C127.508 21.863 127.537 22.1113 127.603 22.2922C127.442 22.3942 127.282 22.4962 127.047 22.6455" fill="white"/>
<path d="M99.2312 17.0255C99.3201 16.8993 99.4168 16.6874 99.466 16.7031C99.998 16.872 100.563 16.9776 100.944 17.5512C101.003 17.6393 100.983 17.8469 100.956 17.9869C100.945 18.0442 100.804 18.1245 100.75 18.0993C100.313 17.8928 99.8781 17.6772 99.4544 17.4311C99.3619 17.3774 99.3179 17.1899 99.2312 17.0255" fill="white"/>
<path d="M119.008 19.899C119.132 19.9087 119.262 19.8918 119.378 19.9339C119.676 20.0417 119.913 20.308 119.825 20.713C119.73 21.1487 119.277 20.9831 119.214 20.8752C118.936 20.3979 118.544 20.5843 118.205 20.4792C118.155 20.4636 118.093 20.3014 118.107 20.2264C118.131 20.0899 118.205 19.8635 118.266 19.8577C118.512 19.8338 118.761 19.8791 119.008 19.899" fill="white"/>
<path d="M77.5614 24.0977C77.7231 24.1888 77.8275 24.2473 77.9317 24.3061C77.8117 24.3683 77.693 24.4696 77.571 24.481C77.4645 24.491 77.3543 24.3997 77.2458 24.3534C77.354 24.2656 77.4623 24.1779 77.5614 24.0977" fill="white"/>
<path d="M60.4956 19.42C60.2455 19.5444 60.1047 19.6385 59.9565 19.6757C59.9022 19.6892 59.8304 19.5669 59.7665 19.5065C59.8613 19.3832 59.9474 19.2431 60.0559 19.147C60.0867 19.1201 60.1837 19.2211 60.4956 19.42" fill="white"/>
</svg>
