<svg width="0" height="0">
  <!-- Header VK icon -->
  <symbol xmlns="http://www.w3.org/2000/svg" viewBox="0 0 25 25" id="vk">
    <path fill-rule="evenodd" clip-rule="evenodd" d="M0 12.5C0 5.596 5.596 0 12.5 0S25 5.596 25 12.5 19.404 25 12.5 25 0 19.404 0 12.5zm13.154 4.102s.24-.026.364-.156c.113-.12.109-.344.109-.344s-.015-1.049.481-1.204c.49-.152 1.117 1.015 1.784 1.463.503.34.885.265.885.265l1.781-.024s.931-.056.49-.775c-.037-.059-.258-.532-1.324-1.504-1.117-1.017-.967-.852.378-2.612.819-1.072 1.146-1.726 1.044-2.006-.098-.267-.7-.196-.7-.196l-2.005.012s-.148-.02-.259.045c-.107.063-.177.211-.177.211s-.317.829-.74 1.534c-.893 1.488-1.25 1.567-1.396 1.475-.34-.216-.255-.866-.255-1.327 0-1.442.223-2.044-.433-2.2-.218-.051-.379-.085-.936-.09-.716-.008-1.32.002-1.664.166-.228.11-.404.354-.296.368.132.018.432.08.591.292.205.275.198.89.198.89s.118 1.698-.276 1.909c-.27.145-.64-.15-1.436-1.5-.408-.692-.716-1.456-.716-1.456s-.059-.143-.165-.22c-.129-.093-.308-.121-.308-.121l-1.905.012s-.286.008-.391.13c-.094.108-.007.333-.007.333s1.491 3.425 3.18 5.151c1.549 1.583 3.307 1.48 3.307 1.48h.797z"></path>
  </symbol>
  <!-- Header Instagram icon -->
  <symbol  xmlns="http://www.w3.org/2000/svg" viewBox="0 0 25 25" id="instagram">
    <g fill-rule="evenodd" clip-rule="evenodd" >
      <path d="M0 12.5C0 5.596 5.596 0 12.5 0S25 5.596 25 12.5 19.404 25 12.5 25 0 19.404 0 12.5zm12.5-6.667c-1.81 0-2.037.008-2.748.04-.71.033-1.194.145-1.618.31-.439.17-.81.398-1.181.77a3.27 3.27 0 00-.77 1.18c-.165.424-.278.909-.31 1.618-.031.711-.04.939-.04 2.75 0 1.81.008 2.036.04 2.747.033.71.146 1.194.31 1.618.17.439.399.81.77 1.181.37.371.742.6 1.18.77.424.165.909.277 1.618.31.711.032.938.04 2.749.04 1.81 0 2.037-.008 2.748-.04.71-.033 1.195-.145 1.62-.31.437-.17.809-.399 1.18-.77.37-.37.598-.742.769-1.18.164-.425.276-.91.31-1.619.031-.71.04-.937.04-2.748 0-1.81-.009-2.038-.04-2.749-.034-.71-.146-1.194-.31-1.618a3.273 3.273 0 00-.77-1.18 3.258 3.258 0 00-1.18-.77c-.425-.165-.91-.277-1.62-.31-.71-.032-.937-.04-2.748-.04h.002z"></path>
      <path d="M11.903 7.035h.598c1.78 0 1.99.006 2.694.038.65.03 1.002.138 1.237.23.311.12.533.265.767.498.233.234.377.456.498.767.092.235.2.587.23 1.237.032.703.039.914.039 2.694 0 1.779-.007 1.99-.04 2.693-.029.65-.137 1.002-.229 1.237a2.06 2.06 0 01-.498.766 2.062 2.062 0 01-.767.499c-.234.091-.587.2-1.237.23-.703.031-.914.038-2.694.038-1.78 0-1.992-.007-2.694-.039-.65-.03-1.003-.138-1.238-.23a2.065 2.065 0 01-.767-.498 2.066 2.066 0 01-.499-.766c-.091-.235-.2-.588-.23-1.238-.031-.703-.038-.914-.038-2.694 0-1.78.007-1.99.039-2.693.03-.65.138-1.003.23-1.238.12-.311.265-.533.498-.767.233-.233.456-.377.767-.499.235-.091.588-.2 1.238-.23.615-.027.853-.036 2.096-.037v.002zm4.156 1.107a.8.8 0 100 1.6.8.8 0 000-1.6zm-3.558.934a3.424 3.424 0 100 6.848 3.424 3.424 0 000-6.848z"></path>
      <path d="M12.5 10.278a2.222 2.222 0 110 4.444 2.222 2.222 0 010-4.444z"></path>
    </g>
  </symbol>
</svg>