<svg width="0" height="0">
  <!-- Header VK icon -->
  <symbol xmlns="http://www.w3.org/2000/svg" viewBox="0 0 25 25" id="vk">
    <path fill-rule="evenodd" clip-rule="evenodd" d="M0 12.5C0 5.596 5.596 0 12.5 0S25 5.596 25 12.5 19.404 25 12.5 25 0 19.404 0 12.5zm13.154 4.102s.24-.026.364-.156c.113-.12.109-.344.109-.344s-.015-1.049.481-1.204c.49-.152 1.117 1.015 1.784 1.463.503.34.885.265.885.265l1.781-.024s.931-.056.49-.775c-.037-.059-.258-.532-1.324-1.504-1.117-1.017-.967-.852.378-2.612.819-1.072 1.146-1.726 1.044-2.006-.098-.267-.7-.196-.7-.196l-2.005.012s-.148-.02-.259.045c-.107.063-.177.211-.177.211s-.317.829-.74 1.534c-.893 1.488-1.25 1.567-1.396 1.475-.34-.216-.255-.866-.255-1.327 0-1.442.223-2.044-.433-2.2-.218-.051-.379-.085-.936-.09-.716-.008-1.32.002-1.664.166-.228.11-.404.354-.296.368.132.018.432.08.591.292.205.275.198.89.198.89s.118 1.698-.276 1.909c-.27.145-.64-.15-1.436-1.5-.408-.692-.716-1.456-.716-1.456s-.059-.143-.165-.22c-.129-.093-.308-.121-.308-.121l-1.905.012s-.286.008-.391.13c-.094.108-.007.333-.007.333s1.491 3.425 3.18 5.151c1.549 1.583 3.307 1.48 3.307 1.48h.797z"></path>
  </symbol>
  <!-- Header Instagram icon -->
  <symbol  xmlns="http://www.w3.org/2000/svg" viewBox="0 0 25 25" id="instagram">
    <g fill-rule="evenodd" clip-rule="evenodd" >
      <path d="M0 12.5C0 5.596 5.596 0 12.5 0S25 5.596 25 12.5 19.404 25 12.5 25 0 19.404 0 12.5zm12.5-6.667c-1.81 0-2.037.008-2.748.04-.71.033-1.194.145-1.618.31-.439.17-.81.398-1.181.77a3.27 3.27 0 00-.77 1.18c-.165.424-.278.909-.31 1.618-.031.711-.04.939-.04 2.75 0 1.81.008 2.036.04 2.747.033.71.146 1.194.31 1.618.17.439.399.81.77 1.181.37.371.742.6 1.18.77.424.165.909.277 1.618.31.711.032.938.04 2.749.04 1.81 0 2.037-.008 2.748-.04.71-.033 1.195-.145 1.62-.31.437-.17.809-.399 1.18-.77.37-.37.598-.742.769-1.18.164-.425.276-.91.31-1.619.031-.71.04-.937.04-2.748 0-1.81-.009-2.038-.04-2.749-.034-.71-.146-1.194-.31-1.618a3.273 3.273 0 00-.77-1.18 3.258 3.258 0 00-1.18-.77c-.425-.165-.91-.277-1.62-.31-.71-.032-.937-.04-2.748-.04h.002z"></path>
      <path d="M11.903 7.035h.598c1.78 0 1.99.006 2.694.038.65.03 1.002.138 1.237.23.311.12.533.265.767.498.233.234.377.456.498.767.092.235.2.587.23 1.237.032.703.039.914.039 2.694 0 1.779-.007 1.99-.04 2.693-.029.65-.137 1.002-.229 1.237a2.06 2.06 0 01-.498.766 2.062 2.062 0 01-.767.499c-.234.091-.587.2-1.237.23-.703.031-.914.038-2.694.038-1.78 0-1.992-.007-2.694-.039-.65-.03-1.003-.138-1.238-.23a2.065 2.065 0 01-.767-.498 2.066 2.066 0 01-.499-.766c-.091-.235-.2-.588-.23-1.238-.031-.703-.038-.914-.038-2.694 0-1.78.007-1.99.039-2.693.03-.65.138-1.003.23-1.238.12-.311.265-.533.498-.767.233-.233.456-.377.767-.499.235-.091.588-.2 1.238-.23.615-.027.853-.036 2.096-.037v.002zm4.156 1.107a.8.8 0 100 1.6.8.8 0 000-1.6zm-3.558.934a3.424 3.424 0 100 6.848 3.424 3.424 0 000-6.848z"></path>
      <path d="M12.5 10.278a2.222 2.222 0 110 4.444 2.222 2.222 0 010-4.444z"></path>
    </g>
  </symbol>
  <!-- Arrow right -->
  <symbol xmlns="http://www.w3.org/2000/svg" viewBox="0 0 31 12" id="arrow">
    <path d="M31 6l-6.599 3.714V2.286L31 6z"></path>
    <path d="M28.367 6L24.4 7.762l-4.156 2.81V1.428l4.156 2.71L28.367 6z"></path>
    <path d="M25.66 6l-5.384 2.28L15 12V0l5.245 3.622L25.66 6z"></path>
    <path d="M16 6H0" stroke="#E1C9A5"></path>
  </symbol>
  <!-- Footer WhatsApp -->
  <symbol xmlns="http://www.w3.org/2000/svg" viewBox="0 0 34 34" id="footer-whatsapp">
    <g fill-rule="evenodd" clip-rule="evenodd">
      <path d="M17 34C7.611 34 0 26.389 0 17S7.611 0 17 0s17 7.611 17 17-7.611 17-17 17zm.56-7.542c5.574-.002 10.107-4.536 10.109-10.109a10.047 10.047 0 00-2.958-7.151 10.043 10.043 0 00-7.15-2.965c-5.573 0-10.107 4.535-10.11 10.108 0 1.782.465 3.521 1.35 5.054l-1.434 5.238 5.359-1.405a10.099 10.099 0 004.83 1.23h.004z"></path>
      <path d="M12.974 23.398l-3.18.834.849-3.1-.2-.318a8.382 8.382 0 01-1.285-4.472c.002-4.632 3.771-8.401 8.406-8.401 2.244 0 4.353.876 5.94 2.464a8.351 8.351 0 012.458 5.944c-.002 4.633-3.77 8.402-8.402 8.402h-.003a8.39 8.39 0 01-4.276-1.171l-.307-.182zm9.68-4.645c-.064-.105-.232-.168-.485-.295-.253-.126-1.494-.737-1.726-.821-.231-.085-.4-.127-.568.126-.169.253-.653.822-.8.99-.147.169-.295.19-.547.064-.253-.127-1.067-.393-2.031-1.254-.751-.67-1.258-1.497-1.406-1.75-.147-.253-.015-.39.111-.515.114-.114.253-.295.38-.443.125-.147.167-.253.252-.421.084-.169.042-.316-.021-.443-.064-.126-.569-1.37-.78-1.875-.204-.493-.412-.426-.567-.434a10.022 10.022 0 00-.485-.009.928.928 0 00-.673.316c-.232.253-.884.864-.884 2.108 0 1.243.905 2.444 1.031 2.612.127.17 1.781 2.72 4.315 3.814.603.26 1.073.416 1.44.532.605.193 1.156.166 1.59.1.486-.072 1.495-.61 1.706-1.2.21-.59.21-1.096.147-1.202z"></path>
    </g>
  </symbol>
  <!-- Footer Viber -->
  <symbol xmlns="http://www.w3.org/2000/svg" viewBox="0 0 30 30" id="footer-viber">
    <path fill-rule="evenodd" clip-rule="evenodd" d="M15 0c8.284 0 15 6.716 15 15 0 8.284-6.716 15-15 15-8.284 0-15-6.716-15-15C0 6.716 6.716 0 15 0zm3.996 13.099c-.073-.593-.255-1.058-.578-1.47-.42-.531-.957-.849-1.752-1.037-.518-.126-.727-.112-.915.06-.174.16-.208.481-.075.69.094.15.202.204.503.263.4.074.678.17.93.314.534.309.783.792.81 1.574.012.367.044.48.172.61a.551.551 0 00.84-.093c.066-.107.076-.154.083-.403a3.96 3.96 0 00-.018-.508zm.007-3.636c1.272 1.028 1.982 2.488 2.087 4.304.045.716-.014.948-.267 1.081a.539.539 0 01-.662-.103c-.117-.12-.162-.284-.16-.576.004-.806-.181-1.706-.483-2.331a4.503 4.503 0 00-1.57-1.798c-.595-.397-1.383-.666-2.146-.733-.496-.043-.673-.127-.768-.364-.059-.142-.043-.388.026-.498a.675.675 0 01.315-.243c.11-.032.75.024 1.098.093a5.88 5.88 0 012.53 1.168zm4.405 11.297a1.986 1.986 0 00-.178-.356c-.373-.563-2.377-2.131-3.378-2.644-.571-.294-.994-.392-1.308-.3-.338.095-.515.252-1.08.955-.229.282-.463.546-.525.587-.154.107-.456.193-.669.193-.494-.003-1.391-.323-2.081-.744-.536-.327-1.223-.91-1.75-1.489-.621-.679-1.045-1.278-1.38-1.954-.431-.868-.541-1.4-.36-1.788.044-.097.103-.201.13-.234.026-.03.305-.258.613-.507.604-.48.701-.59.814-.919.142-.418.103-.845-.116-1.275a17.786 17.786 0 00-.93-1.497c-.423-.605-1.477-1.898-1.687-2.073-.379-.308-.864-.361-1.4-.154-.565.22-1.625 1.074-2.078 1.67-.409.54-.566.922-.59 1.426-.02.415.015.587.235 1.117 1.714 4.163 4.271 7.487 7.785 10.126 1.836 1.378 3.74 2.428 5.714 3.145 1.152.418 1.652.44 2.241.095.249-.148.864-.78 1.208-1.24.568-.764.778-1.117.838-1.399.041-.192.009-.527-.068-.74zm-.757-9.385c.36.94.533 1.782.571 2.81.006.202.003.574-.01.826-.027.483-.053.579-.192.706-.224.21-.66.16-.824-.093-.087-.135-.099-.235-.082-.799.048-1.668-.29-2.974-1.102-4.28-.972-1.568-2.425-2.623-4.314-3.14a10.723 10.723 0 00-1.52-.296c-.41-.054-.5-.077-.602-.14-.307-.196-.311-.693-.005-.893.157-.105.274-.11.788-.044 1.508.188 2.854.637 3.96 1.314.792.486 1.291.922 1.935 1.687.68.815 1.04 1.418 1.397 2.342z"></path>
  </symbol>
  <!-- Footer Instagram -->
  <symbol xmlns="http://www.w3.org/2000/svg" viewBox="0 0 34 34" id="footer-instagram">
    <g fill-rule="evenodd" clip-rule="evenodd">
      <path d="M0 17C0 7.611 7.611 0 17 0s17 7.611 17 17-7.611 17-17 17S0 26.389 0 17zm17-9.067c-2.461 0-2.77.011-3.738.055-.965.044-1.624.197-2.2.421a4.44 4.44 0 00-1.606 1.046 4.451 4.451 0 00-1.047 1.606c-.225.576-.378 1.236-.421 2.2-.043.968-.055 1.277-.055 3.74 0 2.461.011 2.77.055 3.737.045.965.197 1.624.421 2.2a4.443 4.443 0 001.046 1.606 4.44 4.44 0 001.606 1.047c.576.224 1.236.377 2.2.421.968.044 1.277.055 3.739.055 2.462 0 2.77-.01 3.738-.055.965-.044 1.624-.197 2.201-.421a4.436 4.436 0 001.605-1.047 4.452 4.452 0 001.047-1.606c.223-.576.376-1.235.42-2.2.044-.967.056-1.276.056-3.738 0-2.462-.012-2.771-.055-3.738-.045-.966-.198-1.625-.421-2.201a4.452 4.452 0 00-1.047-1.606 4.43 4.43 0 00-1.605-1.046c-.578-.224-1.238-.377-2.203-.42-.967-.045-1.275-.056-3.738-.056h.003z"></path>
      <path d="M16.188 9.567H17c2.42 0 2.708.009 3.664.052.884.04 1.363.189 1.683.313.423.164.725.36 1.042.678.317.317.514.62.678 1.042.124.32.272.8.313 1.683.043.956.052 1.243.052 3.663s-.009 2.707-.052 3.663c-.04.884-.189 1.363-.313 1.683a2.804 2.804 0 01-.678 1.041 2.804 2.804 0 01-1.042.678c-.32.125-.8.272-1.683.313-.956.043-1.243.053-3.664.053-2.421 0-2.708-.01-3.664-.053-.884-.041-1.364-.189-1.684-.313a2.808 2.808 0 01-1.042-.678 2.81 2.81 0 01-.679-1.042c-.124-.32-.272-.8-.312-1.683-.043-.956-.052-1.243-.052-3.664 0-2.421.009-2.707.052-3.663.04-.884.188-1.364.312-1.683a2.81 2.81 0 01.679-1.043c.317-.317.62-.514 1.042-.678.32-.125.8-.272 1.684-.313.837-.038 1.16-.05 2.85-.051v.002zm5.653 1.506a1.088 1.088 0 100 2.175 1.088 1.088 0 000-2.175zM17 12.343a4.656 4.656 0 100 9.314 4.656 4.656 0 000-9.313z"></path>
      <path d="M17 13.978a3.022 3.022 0 110 6.044 3.022 3.022 0 010-6.044z"></path>
    </g>
  </symbol>
  <!-- Footer VK -->
  <symbol xmlns="http://www.w3.org/2000/svg" viewBox="0 0 34 34" id="footer-vk">
    <path fill-rule="evenodd" clip-rule="evenodd" d="M0 17C0 7.611 7.611 0 17 0s17 7.611 17 17-7.611 17-17 17S0 26.389 0 17zm17.89 5.579s.327-.036.494-.213c.154-.162.148-.467.148-.467s-.02-1.427.655-1.638c.665-.207 1.52 1.38 2.425 1.99.685.462 1.205.361 1.205.361l2.422-.033s1.267-.077.666-1.054c-.05-.08-.35-.724-1.8-2.045-1.52-1.384-1.316-1.16.513-3.553 1.114-1.458 1.56-2.347 1.42-2.728-.132-.364-.951-.267-.951-.267l-2.727.016s-.202-.026-.352.061c-.146.087-.241.288-.241.288s-.431 1.127-1.007 2.087c-1.214 2.023-1.7 2.13-1.898 2.005-.462-.294-.346-1.177-.346-1.805 0-1.962.303-2.78-.59-2.99-.297-.071-.515-.117-1.273-.125-.973-.01-1.796.003-2.262.227-.31.149-.55.482-.404.5.18.024.588.109.804.398.28.373.27 1.21.27 1.21s.16 2.31-.375 2.596c-.367.197-.871-.205-1.954-2.04-.554-.941-.973-1.98-.973-1.98s-.08-.195-.225-.3c-.175-.125-.419-.165-.419-.165l-2.59.017s-.39.01-.533.177c-.126.147-.01.452-.01.452s2.029 4.659 4.326 7.007c2.106 2.152 4.497 2.01 4.497 2.01h1.084z"></path>
  </symbol>
</svg>